<svg width="363.499" height="101.457" viewBox="0 0 363.499 101.457" xmlns="http://www.w3.org/2000/svg"><g id="svgGroup" stroke-linecap="round" fill-rule="evenodd" font-size="9pt" stroke="#000" stroke-width="0.25mm" fill="#000" style="stroke:#000;stroke-width:0.25mm;fill:#000"><path d="M 15.267 78.7 L 15.867 78.5 L 15.667 78.5 L 14.867 78.8 L 14.767 78.8 L 13.367 79.2 Q 13.167 79.3 12.967 79.2 L 11.767 79.8 Q 11.367 80 11.167 79.6 Q 10.967 79.2 11.367 79 L 12.467 78.5 L 10.667 78.5 L 9.567 78.9 Q 9.467 79 9.367 79 L 8.267 79.5 Q 7.767 79.7 7.567 79.3 L 7.567 79 L 6.067 79.4 Q 5.667 79.6 5.567 79.2 Q 5.367 78.7 5.867 78.6 L 7.267 78.1 L 8.067 77.6 L 6.967 78 L 5.467 78.6 L 3.667 79.2 Q 3.267 79.4 3.067 79 Q 2.967 78.6 3.467 78.4 Q 3.567 78.2 3.667 78.2 L 5.067 77.7 L 6.467 77.1 L 6.567 77.1 L 7.067 76.9 L 7.067 76.8 Q 6.867 76.6 6.567 76.6 L 5.167 77.2 L 5.067 77.2 L 3.467 77.7 L 2.067 78.3 Q 1.667 78.5 1.467 78.1 Q 1.267 77.7 1.667 77.5 L 3.167 76.9 L 3.167 76.8 L 4.767 76.4 L 6.267 75.7 L 6.467 75.7 L 6.167 74.8 L 4.367 75.6 L 2.967 76.3 L 2.867 76.3 L 1.467 76.7 Q 1.067 76.9 0.867 76.5 Q 0.767 76 1.167 75.9 L 2.567 75.4 L 4.067 74.8 L 6.067 73.9 Q 6.067 73.6 6.017 73.35 Q 5.967 73.1 5.867 73 L 4.167 73.7 L 4.167 73.8 L 2.667 74.3 L 1.067 74.9 Q 0.667 75 0.467 74.6 Q 0.367 74.2 0.767 74 L 2.267 73.5 L 3.867 72.9 L 5.467 72.2 L 6.267 71.8 L 6.267 71.7 Q 6.367 71.1 6.067 70.8 L 4.467 71.4 L 2.767 71.9 L 1.267 72.5 Q 0.867 72.7 0.667 72.3 Q 0.467 71.9 0.967 71.7 L 2.467 71 L 2.567 71 L 4.167 70.5 L 5.667 70 L 6.467 69.7 L 6.467 68.6 L 5.767 68.8 L 4.267 69.4 L 2.667 69.9 L 1.267 70.5 Q 0.867 70.6 0.667 70.2 Q 0.567 69.8 0.967 69.6 L 2.367 69.1 L 2.467 69.1 L 2.467 69 L 3.967 68.6 L 5.467 67.9 L 5.567 67.9 L 6.567 67.6 Q 6.567 67 6.067 66.8 L 4.367 67.4 L 2.667 68.1 L 2.567 68.1 L 2.567 68.2 L 0.867 68.6 Q 0.367 68.7 0.267 68.3 Q 0.167 67.9 0.567 67.7 L 2.367 67.3 L 4.067 66.5 L 5.867 66 L 6.667 65.7 L 6.667 64.8 L 6.067 65.1 L 4.467 65.6 L 3.067 66.3 L 1.267 66.9 Q 0.867 67.1 0.667 66.7 Q 0.567 66.3 0.967 66.1 L 2.667 65.5 L 4.067 64.8 L 4.167 64.8 L 5.667 64.2 L 6.667 63.8 L 6.667 62.7 L 5.767 63 L 4.067 63.5 L 2.367 64.1 L 0.767 64.9 Q 0.367 65.1 0.167 64.7 Q -0.033 64.3 0.367 64.1 L 1.967 63.3 L 3.767 62.6 L 5.567 62.1 L 6.567 61.8 L 6.567 60.9 L 6.067 61.1 L 4.467 61.9 L 2.967 62.6 L 1.267 63.3 Q 0.867 63.5 0.667 63.1 Q 0.467 62.7 0.867 62.5 L 2.567 61.7 L 4.067 61.1 L 5.667 60.3 L 6.567 59.9 Q 6.467 59.4 6.467 58.9 L 5.767 59.2 L 4.167 59.8 L 2.467 60.3 L 0.767 61 Q 0.367 61.1 0.167 60.7 Q 0.067 60.3 0.467 60.1 L 2.067 59.5 L 2.167 59.5 L 3.867 58.9 L 5.467 58.3 L 6.367 58 Q 6.267 57.4 5.867 57.3 L 4.367 58.1 L 2.967 58.7 L 2.967 58.8 L 2.867 58.8 L 1.167 59.3 Q 0.767 59.5 0.567 59 Q 0.467 58.6 0.867 58.5 L 2.567 57.9 L 3.967 57.3 L 5.467 56.5 L 6.167 56.2 Q 6.067 55.6 5.867 55.4 L 4.167 56 L 2.567 56.5 L 1.167 57 Q 0.767 57.1 0.567 56.7 Q 0.467 56.2 0.867 56.1 L 2.367 55.6 L 3.867 55.2 L 5.967 54.3 Q 5.967 53.9 5.867 53.5 L 4.467 54 L 2.967 54.7 L 2.867 54.7 L 1.267 55.3 Q 0.867 55.5 0.667 55 Q 0.567 54.6 0.967 54.5 L 2.567 53.9 L 4.067 53.2 L 4.167 53.1 L 5.767 52.5 L 5.767 51.4 L 4.367 52 L 2.967 52.8 L 1.367 53.3 Q 0.967 53.5 0.767 53.1 Q 0.667 52.7 1.067 52.5 L 2.567 52 L 3.967 51.2 L 4.067 51.2 L 5.667 50.5 Q 5.567 50 5.567 49.5 L 4.567 49.9 L 2.867 50.5 L 1.367 51.3 Q 0.967 51.5 0.767 51.1 Q 0.567 50.7 0.967 50.5 L 2.467 49.7 L 4.267 49 L 5.567 48.6 Q 5.467 48.1 5.467 47.6 L 4.267 48 L 2.467 48.5 L 0.767 49.2 Q 0.367 49.4 0.167 49 Q -0.033 48.6 0.467 48.4 L 2.167 47.6 L 2.267 47.6 L 3.967 47.1 L 5.467 46.6 Q 5.367 46.1 5.367 45.6 L 4.667 45.8 L 3.267 46.4 L 1.467 47.2 Q 1.067 47.3 0.867 46.9 Q 0.667 46.5 1.167 46.3 L 2.867 45.6 L 4.367 45 L 5.367 44.7 L 5.367 43.7 L 4.167 44 L 2.567 44.6 L 1.067 45.4 Q 0.667 45.6 0.467 45.2 Q 0.267 44.8 0.667 44.6 L 2.167 43.8 L 3.867 43.2 L 3.867 43.1 L 5.267 42.8 L 5.267 42.2 L 5.267 41.9 L 4.367 42.2 L 2.667 42.8 L 1.067 43.5 Q 0.667 43.7 0.467 43.3 Q 0.267 42.9 0.667 42.7 L 2.267 42 L 2.367 41.9 L 4.067 41.4 L 5.267 40.9 L 5.267 39.9 L 4.067 40.5 L 2.467 41.2 L 0.867 41.8 Q 0.467 42 0.267 41.5 Q 0.167 41.1 0.567 41 L 2.067 40.4 L 3.767 39.6 L 5.267 39 Q 5.267 38.4 5.367 37.8 L 4.467 38.2 L 2.767 38.7 L 1.267 39.4 Q 0.867 39.6 0.667 39.2 Q 0.467 38.8 0.867 38.6 L 2.367 37.9 L 2.367 37.8 L 2.467 37.8 L 4.167 37.4 L 5.367 36.7 L 5.367 35.8 L 4.367 36.1 L 2.667 36.5 L 0.967 37.1 Q 0.567 37.2 0.367 36.8 Q 0.267 36.4 0.667 36.2 L 2.467 35.7 L 4.067 35.2 L 5.467 34.8 L 5.467 33.9 L 4.067 34.3 L 2.367 34.9 L 0.867 35.4 Q 0.467 35.6 0.267 35.2 Q 0.167 34.7 0.567 34.6 L 2.167 34 L 3.767 33.5 L 3.767 33.4 L 5.567 33 L 5.567 32 L 4.567 32.3 L 2.967 32.8 L 1.267 33.3 Q 0.767 33.4 0.667 33 Q 0.567 32.5 0.967 32.4 L 2.767 31.9 L 4.267 31.5 L 5.667 31.1 Q 5.667 30.6 5.767 30 L 4.167 30.6 L 2.767 31.1 L 1.267 31.7 Q 0.867 31.9 0.667 31.5 Q 0.567 31 0.967 30.9 L 2.367 30.3 L 3.867 29.7 L 5.767 29 Q 5.767 28.7 5.817 28.45 Q 5.867 28.2 5.867 27.9 L 5.867 27.7 L 4.167 28.3 L 2.667 29 L 2.567 29 L 0.967 29.6 Q 0.567 29.7 0.367 29.3 Q 0.267 28.9 0.667 28.7 L 2.267 28.2 L 3.867 27.5 L 5.567 26.8 L 5.667 26.8 L 5.967 26.7 Q 5.967 26 5.767 25.7 L 4.067 26.3 L 2.367 27 L 0.667 27.8 Q 0.267 28 0.067 27.6 Q -0.133 27.2 0.267 27 L 1.967 26.2 L 3.767 25.4 L 5.567 24.8 L 6.067 24.7 Q 6.067 24.3 6.167 24 L 4.567 24.7 L 2.967 25.2 L 1.467 25.7 Q 1.067 25.9 0.867 25.5 Q 0.767 25.1 1.167 24.9 L 2.767 24.3 L 4.267 23.9 L 6.167 23 Q 6.167 22.7 6.117 22.4 Q 6.067 22.1 5.767 21.8 L 4.267 22.4 L 2.467 22.8 L 1.067 23.4 Q 0.667 23.5 0.467 23.1 Q 0.367 22.7 0.767 22.5 L 2.167 22 L 2.267 22 L 3.967 21.5 L 5.467 20.9 L 5.567 20.9 L 6.167 20.8 Q 6.167 20.2 5.867 20 L 4.167 20.7 L 2.667 21.3 L 1.067 21.8 Q 0.667 22 0.467 21.5 Q 0.367 21.1 0.767 21 L 2.367 20.4 L 3.867 19.9 L 5.467 19.2 L 6.267 18.9 Q 6.267 18.2 5.967 17.9 L 4.567 18.4 L 3.167 19 L 1.567 19.6 Q 1.167 19.7 0.967 19.3 Q 0.867 18.9 1.267 18.7 L 2.767 18.2 L 4.267 17.6 L 5.667 17 L 5.767 17 L 6.267 16.9 Q 6.267 16.3 5.867 16.1 L 4.467 16.6 L 2.867 17.2 L 1.267 17.8 Q 0.867 18 0.667 17.5 Q 0.567 17.1 0.967 17 L 2.567 16.4 L 4.167 15.7 L 5.567 15.3 L 6.167 15 L 6.167 14.4 L 6.167 14.2 L 6.167 14.3 L 6.067 14.3 L 4.467 14.7 L 3.067 15.2 L 1.467 15.9 Q 1.067 16.1 0.867 15.7 Q 0.667 15.3 1.067 15.1 L 2.667 14.4 L 2.767 14.3 L 4.167 13.9 L 6.167 13.2 Q 6.167 12.4 5.867 12.1 L 4.467 12.6 L 2.767 13.1 L 1.267 13.9 Q 0.867 14.1 0.667 13.7 Q 0.467 13.3 0.867 13.1 L 2.367 12.3 L 2.467 12.3 L 4.167 11.7 L 5.667 11.3 L 6.167 11.1 L 6.167 10.8 L 6.167 10.6 Q 6.167 10.2 5.867 10 L 4.167 10.8 L 1.267 12.1 Q 0.867 12.3 0.667 11.9 Q 0.467 11.5 0.867 11.3 L 3.767 10 L 5.467 9.2 L 5.567 9.2 L 6.067 9 Q 6.067 8.7 5.667 8.7 L 3.967 9.2 Q 3.667 9.3 3.467 9.2 L 1.967 9.9 Q 1.567 10.1 1.367 9.7 Q 1.167 9.3 1.567 9.1 L 3.167 8.3 L 3.267 8.3 L 4.667 7.8 L 6.367 7.3 L 6.467 7.2 Q 6.767 6.2 7.367 5.7 Q 8.367 4.7 9.517 4.6 Q 10.667 4.5 11.867 4.6 Q 12.267 4.6 12.467 4.7 Q 15.867 4.9 19.317 5 Q 22.767 5.1 26.167 5.1 L 27.267 5.1 Q 28.767 5 30.217 5.2 Q 31.667 5.4 32.667 6.6 Q 33.467 7.6 33.617 8.7 Q 33.767 9.8 33.667 11 L 33.667 11.7 L 33.667 13.1 L 33.667 14.4 L 33.667 16.05 L 33.667 17.7 Q 33.667 19.5 33.517 21.3 Q 33.367 23.1 33.267 24.9 L 33.267 26.55 L 33.267 28.2 L 33.267 28.6 L 33.267 28.8 L 35.167 28.8 Q 36.867 28.7 38.567 28.55 Q 40.267 28.4 41.967 28.3 L 43.367 27.8 L 45.167 27.1 L 46.867 26.5 Q 46.967 26.1 46.967 25.6 L 45.567 26.1 L 43.767 26.8 L 42.067 27.3 Q 41.667 27.5 41.467 27 Q 41.367 26.6 41.767 26.5 L 43.467 25.9 L 45.267 25.2 L 47.067 24.6 L 47.067 24.4 L 47.067 24.1 Q 47.167 23.9 47.167 23.7 L 45.567 24.2 L 43.967 24.9 L 42.367 25.5 Q 41.967 25.7 41.767 25.2 Q 41.667 24.8 42.067 24.7 L 43.567 24.1 L 45.167 23.3 L 45.267 23.3 L 47.267 22.7 Q 47.367 22 47.167 21.8 L 45.667 22.4 L 44.067 22.8 L 42.367 23.5 Q 41.967 23.7 41.767 23.2 Q 41.667 22.8 42.067 22.7 L 43.767 22 L 43.867 22 L 45.367 21.5 L 46.767 21 L 47.467 20.7 Q 47.467 20 47.067 19.9 L 46.967 19.9 L 45.567 20.4 L 43.867 21.1 L 42.167 21.9 Q 41.767 22.1 41.567 21.7 Q 41.367 21.2 41.767 21.1 L 43.467 20.3 L 45.267 19.5 L 46.667 19 L 47.567 18.7 Q 47.567 18.1 47.367 17.9 L 47.267 17.9 L 45.767 18.4 L 43.967 18.9 L 42.567 19.4 Q 42.167 19.5 41.967 19.1 Q 41.867 18.7 42.267 18.5 L 43.767 18.1 L 45.467 17.5 L 46.967 17 L 47.567 16.8 Q 47.567 16 47.067 15.8 L 45.567 16.4 L 44.167 17.2 L 44.067 17.2 L 42.567 17.7 Q 42.167 17.8 41.967 17.4 Q 41.867 16.9 42.267 16.8 L 43.767 16.4 L 45.167 15.6 L 45.267 15.6 L 46.767 14.9 L 46.867 14.9 L 47.567 14.7 Q 47.567 14.1 47.067 14 L 45.467 14.4 L 43.767 15 L 42.167 15.7 Q 41.767 15.8 41.567 15.4 Q 41.367 15 41.867 14.8 L 43.367 14.2 L 43.367 14.1 L 43.467 14.1 L 45.167 13.6 L 46.867 13.1 L 47.367 12.9 L 47.367 12.1 L 47.367 12.2 L 47.267 12.2 L 45.667 12.7 L 43.967 13.4 L 42.267 14.1 Q 41.867 14.3 41.667 13.9 Q 41.467 13.5 41.867 13.3 L 43.567 12.6 L 43.567 12.5 L 45.367 11.9 L 47.267 11.2 L 47.267 11 Q 47.167 10.4 47.167 10.1 L 45.667 10.8 L 44.267 11.5 L 44.167 11.5 L 42.567 11.9 Q 42.067 12.1 41.967 11.6 Q 41.867 11.2 42.267 11.1 L 43.867 10.6 L 45.267 10 L 46.967 9.2 L 47.067 9.2 Q 47.067 8.9 47.167 8.7 L 46.267 9.1 L 44.667 9.6 L 43.067 10 Q 42.567 10.1 42.467 9.7 Q 42.367 9.3 42.767 9.2 L 44.367 8.7 Q 44.467 8.5 44.667 8.5 L 46.367 7.9 L 47.467 7.5 Q 47.667 7 48.067 6.6 Q 48.967 5.6 50.067 5.45 Q 51.167 5.3 52.367 5.4 L 52.867 5.4 Q 55.867 5.5 58.917 5.55 Q 61.967 5.6 64.967 5.7 L 67.167 5.7 L 69.267 5.7 L 69.867 5.7 Q 71.167 5.7 72.367 5.85 Q 73.567 6 74.667 6.9 Q 75.867 8.1 76.017 9.65 Q 76.167 11.2 76.167 12.7 Q 76.167 13 76.117 13.3 Q 76.067 13.6 76.067 13.9 L 76.067 18 Q 76.067 20 76.167 22 Q 76.167 24.7 76.217 27.35 Q 76.267 30 76.067 32.6 Q 75.967 35.2 75.967 37.75 Q 75.967 40.3 75.667 42.9 Q 75.467 45.3 75.217 47.65 Q 74.967 50 74.867 52.3 Q 74.767 53.9 74.767 55.4 L 74.767 58.4 Q 74.867 59.9 74.867 61.35 Q 74.867 62.8 74.767 64.2 Q 74.667 66.2 74.617 68.1 Q 74.567 70 74.567 72 L 74.567 72.5 Q 74.567 73.7 74.367 74.85 Q 74.167 76 73.267 76.9 Q 72.267 77.8 71.167 77.95 Q 70.067 78.1 68.867 78 L 68.167 78 L 67.867 78 L 66.367 78.7 L 64.667 79.3 Q 64.367 79.5 64.067 79.2 L 62.267 79.6 Q 61.867 79.8 61.767 79.3 Q 61.667 79.3 61.667 79.2 L 60.967 79.4 Q 60.467 79.6 60.367 79.1 Q 60.267 78.9 60.367 78.8 L 58.667 79.3 Q 58.267 79.5 58.067 79.1 Q 57.967 78.6 58.367 78.5 L 58.967 78.3 L 58.867 78.3 L 58.367 78.5 L 56.867 79.1 Q 56.467 79.3 56.267 78.9 L 54.967 79.3 Q 54.567 79.5 54.367 79.1 Q 54.267 78.7 54.867 78.4 L 54.267 78.6 L 52.567 79.3 Q 52.167 79.5 51.967 79.1 L 50.967 79.5 Q 50.567 79.7 50.367 79.3 L 50.367 79.1 L 48.767 79.8 Q 48.367 80 48.167 79.6 Q 48.067 79.2 48.467 79 L 47.367 79.4 Q 46.867 79.6 46.767 79.2 Q 46.567 78.8 46.967 78.6 L 48.467 78 L 49.167 77.8 L 49.067 77.8 L 48.367 78 L 46.667 78.7 L 44.867 79.3 Q 44.467 79.5 44.267 79.1 Q 44.167 78.7 44.567 78.5 L 46.267 77.8 L 48.167 77.1 Q 47.967 77 47.867 76.9 Q 47.767 76.8 47.667 76.6 L 46.267 77.2 L 44.567 78 L 42.867 78.5 Q 42.367 78.7 42.267 78.3 Q 42.167 77.8 42.567 77.7 L 44.267 77.1 L 45.967 76.4 L 47.267 75.8 Q 47.067 75.5 46.967 75.1 L 45.667 75.6 L 44.167 76.1 L 42.567 76.6 Q 42.167 76.8 41.967 76.4 Q 41.867 75.9 42.267 75.8 L 43.967 75.2 L 45.367 74.8 L 46.867 74.1 Q 46.867 73.7 46.967 73 L 45.267 73.6 L 43.867 74 L 42.167 74.8 Q 41.767 75 41.567 74.5 Q 41.367 74.1 41.767 73.9 L 43.467 73.2 L 43.567 73.2 L 44.967 72.7 L 47.067 72 L 47.067 71.8 L 47.067 71.7 Q 47.167 71.1 47.167 70.7 L 45.567 71.5 L 44.067 71.9 L 42.467 72.7 Q 42.067 72.9 41.867 72.5 Q 41.667 72.1 42.067 71.9 L 43.667 71.1 L 43.767 71.1 L 45.267 70.6 L 46.767 69.9 Q 46.867 69.9 47.267 69.7 L 47.267 69 L 47.167 69.1 L 45.567 69.6 L 44.167 70.4 L 42.667 71.1 Q 42.267 71.3 42.067 70.9 Q 41.867 70.5 42.267 70.3 L 43.767 69.6 L 45.167 68.8 L 45.267 68.8 L 47.267 68 Q 47.367 67.4 47.267 67.1 L 45.667 67.7 L 45.667 67.8 L 44.067 68.3 L 42.267 69.1 Q 41.867 69.3 41.667 68.8 Q 41.467 68.4 41.967 68.3 L 43.667 67.5 L 43.767 67.5 L 45.367 66.9 L 47.267 66 L 47.267 64.8 L 45.567 65.3 L 43.967 66.1 L 42.167 66.7 Q 41.767 66.9 41.567 66.5 Q 41.467 66 41.867 65.9 L 43.567 65.2 L 45.167 64.5 Q 45.267 64.5 45.267 64.4 L 47.267 63.9 Q 47.167 63.5 47.167 63 L 45.567 63.6 L 44.067 64.4 L 42.567 65 Q 42.167 65.1 41.967 64.7 Q 41.867 64.3 42.267 64.1 L 43.667 63.6 L 45.167 62.8 L 45.267 62.8 L 47.167 62.1 Q 47.067 61.7 47.067 61.3 L 45.567 62 L 43.967 62.5 L 42.167 63.3 Q 41.767 63.5 41.567 63.1 Q 41.367 62.6 41.867 62.5 L 43.567 61.7 L 43.667 61.7 L 45.267 61.1 L 47.067 60.3 Q 46.967 59.7 46.967 59.2 L 45.667 59.9 L 44.167 60.5 L 42.667 61.2 Q 42.267 61.4 42.067 61 Q 41.867 60.6 42.267 60.4 L 43.767 59.7 L 43.767 59.6 L 45.367 59.1 L 46.767 58.3 L 46.867 58.2 L 46.867 57.2 L 45.667 57.6 L 44.067 58.1 L 42.467 58.6 Q 41.967 58.7 41.867 58.3 Q 41.767 57.8 42.167 57.7 L 43.867 57.2 L 45.367 56.8 L 46.867 56.2 L 46.867 56 L 46.867 55.4 L 45.667 55.8 L 43.967 56.3 L 42.267 56.9 Q 41.867 57 41.667 56.6 Q 41.567 56.2 41.967 56 L 43.767 55.5 L 45.367 54.9 L 46.867 54.4 L 46.867 53.9 L 46.867 53.4 L 46.367 53.4 L 45.467 53.8 L 44.067 54.6 L 43.967 54.6 L 42.267 55 Q 41.767 55.2 41.667 54.7 Q 41.567 54.3 41.967 54.2 L 43.667 53.7 L 44.367 53.4 L 44.267 53.4 L 43.667 53.6 L 42.067 54.1 L 40.667 54.6 Q 40.267 54.8 40.067 54.4 L 40.067 54.3 L 38.567 54.8 Q 38.167 55 37.967 54.6 L 37.967 54.5 L 37.067 54.8 Q 36.767 54.9 36.567 54.7 L 35.067 55.2 Q 34.667 55.4 34.467 55 Q 34.467 54.8 34.167 54.8 L 34.167 55.45 Q 34.167 55.8 34.067 56.1 Q 34.067 57.6 33.967 59.1 Q 33.867 60.6 33.867 62 Q 33.867 63 33.917 63.9 Q 33.967 64.8 33.967 65.7 Q 34.067 66.7 34.067 67.75 L 34.067 69.8 L 34.067 70.9 Q 34.167 72.4 33.967 73.95 Q 33.767 75.5 32.667 76.7 Q 31.567 77.8 30.267 77.95 Q 28.967 78.1 27.667 78.2 L 27.067 78.2 L 26.567 78.2 L 25.067 79 L 24.967 79 L 23.567 79.4 Q 23.167 79.6 22.967 79.2 L 22.967 79.1 L 21.367 79.5 Q 20.967 79.7 20.867 79.2 Q 20.767 79.1 20.867 78.9 L 19.767 79.4 Q 19.367 79.6 19.167 79.2 L 19.167 79 L 18.067 79.4 Q 17.667 79.6 17.467 79.2 L 17.467 78.95 Q 17.467 78.8 17.367 78.8 L 15.667 79.5 Q 15.267 79.7 15.067 79.3 Q 14.867 78.9 15.267 78.7 Z M 103.867 79.4 L 102.767 79.7 Q 102.667 79.8 102.517 79.8 L 102.167 79.8 L 100.467 80.5 Q 100.067 80.6 99.967 80.2 Q 99.767 79.9 99.967 79.7 L 98.367 80.4 Q 97.967 80.5 97.767 80.1 Q 97.667 80 97.767 79.8 L 96.967 80 L 96.267 80.3 Q 95.867 80.5 95.667 80.1 L 95.667 79.7 L 95.567 79.7 L 95.567 79.8 L 94.067 80.2 Q 93.567 80.3 93.467 79.9 Q 93.367 79.5 93.767 79.4 L 95.267 78.9 L 96.767 78.2 L 96.867 78.1 Q 96.667 78 96.467 78 L 94.967 78.6 L 93.367 79.4 L 91.567 80.2 Q 91.167 80.4 90.967 79.9 Q 90.867 79.5 91.267 79.4 L 92.967 78.6 L 94.667 77.8 L 95.267 77.5 Q 95.167 77.5 94.667 77.6 L 94.567 77.6 L 93.167 78.1 L 91.667 78.6 L 90.167 79.3 Q 89.767 79.5 89.567 79.1 Q 89.367 78.7 89.767 78.5 L 91.267 77.8 L 91.267 77.7 L 91.367 77.7 L 92.867 77.3 L 93.967 76.9 Q 93.667 76.7 93.367 76.6 L 92.567 76.9 L 91.167 77.5 L 89.367 78.3 L 87.967 79.1 Q 87.567 79.3 87.367 78.9 Q 87.167 78.5 87.567 78.3 L 88.967 77.5 L 89.067 77.5 L 90.767 76.7 L 92.367 76 Q 91.967 75.8 91.567 75.5 L 90.767 75.9 L 89.267 76.3 L 87.767 77 L 85.967 77.6 Q 85.567 77.7 85.367 77.3 Q 85.267 76.9 85.667 76.7 L 87.467 76.2 L 88.967 75.5 L 90.767 74.9 L 89.967 74.3 L 89.367 74.5 L 87.867 75.1 L 86.267 75.9 L 84.667 76.6 Q 84.267 76.7 84.067 76.3 Q 83.967 75.9 84.367 75.7 L 85.867 75.1 L 87.567 74.3 L 88.967 73.7 L 88.967 73.6 L 89.167 73.6 Q 88.867 73.3 88.567 73.1 Q 88.467 72.9 88.367 72.8 L 87.467 73.1 L 85.967 73.7 L 84.467 74.5 L 84.367 74.5 L 82.967 75 Q 82.467 75.1 82.367 74.7 Q 82.267 74.3 82.667 74.1 L 84.067 73.7 L 85.567 72.9 L 87.167 72.2 L 87.667 72.1 Q 87.367 71.7 86.967 71.3 L 86.167 71.6 L 86.067 71.6 L 84.467 72.1 L 82.967 72.7 L 81.467 73.5 Q 81.067 73.7 80.867 73.3 Q 80.667 72.9 81.067 72.7 L 82.567 71.9 L 84.167 71.2 L 85.867 70.8 L 86.467 70.5 Q 86.167 70.1 85.867 69.6 L 85.267 69.8 L 83.567 70.5 L 82.167 71.2 L 80.667 71.8 Q 80.267 71.9 80.067 71.5 Q 79.967 71.1 80.367 70.9 L 81.767 70.4 L 83.267 69.7 L 84.867 69 L 84.867 68.9 L 85.367 68.8 L 84.767 67.8 L 84.067 68 L 82.267 68.5 L 80.867 69.3 L 79.367 69.7 Q 78.967 69.9 78.867 69.4 Q 78.667 69 79.067 68.9 L 80.467 68.4 L 81.967 67.7 L 82.067 67.6 L 83.767 67.2 L 84.367 67 Q 84.167 66.7 84.017 66.45 Q 83.867 66.2 83.467 66.1 L 81.867 66.9 L 81.767 66.9 L 80.167 67.5 L 78.467 68.2 Q 78.067 68.4 77.967 68 Q 77.767 67.5 78.167 67.4 L 79.867 66.7 L 81.467 66 L 83.467 65.1 Q 83.367 64.9 83.217 64.65 Q 83.067 64.4 82.667 64.2 L 82.567 64.2 L 80.867 64.7 L 79.467 65.4 L 79.367 65.5 L 77.867 65.9 Q 77.467 66 77.267 65.6 Q 77.167 65.2 77.567 65.1 L 79.067 64.6 L 80.467 63.9 L 80.567 63.8 L 80.667 63.8 L 82.667 63.2 Q 82.367 62.6 82.167 62 L 80.367 62.6 L 80.367 62.7 L 78.667 63.2 L 76.867 63.9 Q 76.467 64 76.367 63.6 Q 76.167 63.2 76.567 63 L 78.367 62.4 L 80.067 61.8 L 81.867 61.1 Q 81.667 60.7 81.567 60.3 L 80.467 60.6 L 79.067 61 L 77.467 61.6 Q 77.067 61.8 76.967 61.3 Q 76.767 60.9 77.167 60.8 L 78.767 60.2 L 80.267 59.7 L 81.267 59.4 L 81.067 58.2 L 80.367 58.5 L 78.567 59.2 L 77.067 59.7 Q 76.567 59.9 76.467 59.5 Q 76.267 59 76.667 58.9 L 78.267 58.3 L 79.967 57.7 L 80.867 57.3 Q 80.867 56.8 80.767 56.3 L 79.967 56.7 L 78.367 57.2 L 76.967 57.6 Q 76.567 57.8 76.367 57.4 Q 76.267 56.9 76.667 56.8 L 78.167 56.3 L 79.667 55.9 L 80.767 55.3 Q 80.667 54.8 80.667 54.3 L 80.067 54.5 L 78.467 55.2 L 76.767 55.9 Q 76.367 56 76.167 55.6 Q 76.067 55.2 76.467 55 L 78.067 54.4 L 79.767 53.7 L 80.667 53.3 Q 80.567 52.8 80.567 52.1 L 79.967 52.4 L 78.467 52.9 L 78.367 52.9 L 76.667 53.4 Q 76.167 53.5 76.067 53.1 Q 75.967 52.6 76.367 52.5 L 78.167 52.1 L 79.667 51.5 L 80.567 51.2 L 80.567 51.1 L 80.567 50.2 L 79.967 50.4 L 78.467 51 L 76.667 51.6 Q 76.267 51.8 76.067 51.4 Q 75.967 50.9 76.367 50.8 L 78.067 50.1 L 79.667 49.6 L 80.567 49.2 Q 80.467 48.6 80.367 48.3 L 78.667 49 L 76.967 49.6 Q 76.567 49.8 76.367 49.4 Q 76.267 49 76.667 48.8 L 78.267 48.1 L 80.067 47.5 L 80.467 47.3 L 80.467 46.4 L 79.967 46.6 L 78.167 47.1 L 76.567 47.6 Q 76.067 47.7 75.967 47.3 Q 75.867 46.8 76.267 46.7 L 77.967 46.3 L 79.667 45.7 L 80.467 45.4 L 80.467 44.4 L 79.767 44.7 L 78.067 45.3 L 76.667 45.7 Q 76.267 45.9 76.067 45.4 Q 75.967 45 76.367 44.9 L 77.867 44.4 L 79.467 43.8 L 80.567 43.4 Q 80.567 42.9 80.167 42.8 L 78.467 43.5 L 76.767 44.2 Q 76.367 44.4 76.167 44 Q 75.967 43.6 76.367 43.4 L 78.067 42.6 L 79.867 42 L 80.567 41.6 Q 80.567 40.9 80.167 40.6 L 78.367 41.3 L 76.667 41.9 Q 76.267 42 76.067 41.6 Q 75.967 41.2 76.367 41 L 78.067 40.5 L 79.867 39.8 L 80.567 39.6 Q 80.567 39.3 80.667 38.9 L 80.667 38.6 L 80.067 38.9 L 78.367 39.3 L 76.767 40 Q 76.367 40.2 76.167 39.7 Q 76.067 39.3 76.467 39.2 L 78.067 38.5 L 78.167 38.5 L 79.767 38 L 80.667 37.7 Q 80.667 37.4 80.617 37.1 Q 80.567 36.8 80.167 36.6 L 78.467 37.1 L 76.967 37.7 Q 76.567 37.9 76.367 37.5 Q 76.167 37.1 76.667 36.9 L 78.167 36.2 L 78.267 36.2 L 79.867 35.7 L 80.667 35.5 Q 80.667 35 80.267 34.9 L 78.667 35.5 L 77.167 36.1 Q 76.767 36.3 76.567 35.9 Q 76.367 35.5 76.767 35.3 L 78.267 34.7 L 78.367 34.6 L 79.967 34.1 L 80.567 33.8 Q 80.567 33.4 80.517 33.1 Q 80.467 32.8 80.167 32.6 L 78.467 33.1 L 76.767 33.6 Q 76.267 33.7 76.167 33.3 Q 76.067 32.8 76.467 32.7 L 78.267 32.3 L 79.867 31.7 L 80.567 31.4 Q 80.567 30.8 80.167 30.6 L 78.667 31.2 L 78.567 31.2 L 76.967 31.8 Q 76.567 32 76.367 31.5 Q 76.267 31.1 76.667 31 L 78.267 30.4 L 79.867 29.7 L 80.567 29.5 Q 80.467 29 80.167 28.9 L 78.467 29.7 L 76.967 30.4 Q 76.567 30.6 76.367 30.2 Q 76.167 29.8 76.567 29.6 L 78.067 28.9 L 78.067 28.8 L 79.767 28.1 L 80.467 27.7 L 80.467 27 L 79.367 27.5 L 77.567 28.2 Q 77.167 28.4 76.967 28 Q 76.867 27.5 77.267 27.4 L 78.767 26.8 Q 78.867 26.6 79.067 26.5 L 80.567 26 Q 80.867 24.4 81.867 23.4 Q 82.467 22.9 83.217 22.65 Q 83.967 22.4 84.767 22.3 Q 85.467 22.2 86.217 22.25 Q 86.967 22.3 87.667 22.3 Q 88.067 22.3 88.417 22.35 Q 88.767 22.4 89.167 22.4 Q 91.667 22.5 94.117 22.4 Q 96.567 22.3 99.067 22.3 Q 100.967 22.2 103.067 22.2 Q 103.267 22.2 103.767 22.1 L 104.517 22.1 Q 104.867 22.1 105.267 22.2 Q 106.067 22.3 106.767 22.55 Q 107.467 22.8 108.067 23.4 Q 108.667 24 108.867 24.7 Q 109.067 25.4 109.267 26.2 Q 109.367 26.6 109.317 27 Q 109.267 27.4 109.267 27.8 L 109.267 28.5 Q 109.267 29.5 109.217 30.55 Q 109.167 31.6 109.167 32.6 Q 109.167 36.2 109.217 39.85 Q 109.267 43.5 109.567 47.2 Q 109.667 49.1 109.667 51 Q 109.667 52.9 109.867 54.8 Q 109.867 55.2 109.917 55.65 Q 109.967 56.1 110.067 56.5 Q 110.467 57.6 111.267 58.2 L 112.467 57.6 L 114.167 56.9 L 115.667 56.4 L 116.767 55.9 Q 116.867 55.4 116.967 54.7 L 116.267 55 L 114.667 55.4 L 113.167 56 L 111.767 56.4 Q 111.367 56.6 111.167 56.2 Q 111.067 55.7 111.467 55.6 L 112.867 55.1 L 114.367 54.6 L 116.067 54.1 L 117.067 53.8 L 117.067 52.7 L 116.067 53 L 114.567 53.7 L 113.167 54.4 L 111.467 55.1 Q 111.067 55.3 110.867 54.9 Q 110.767 54.4 111.167 54.3 L 112.767 53.6 L 114.167 52.9 L 115.667 52.2 L 115.767 52.2 L 117.067 51.8 L 117.067 51.5 L 117.067 51 L 117.067 50.9 L 116.167 51.3 L 114.367 52 L 112.967 52.5 L 111.267 53.3 Q 110.867 53.5 110.667 53.1 Q 110.467 52.7 110.867 52.5 L 112.567 51.7 L 114.067 51.1 L 115.767 50.5 L 117.067 49.9 L 117.067 49 L 116.167 49.3 L 114.567 50 L 114.567 50.1 L 113.067 50.5 L 111.367 51.3 Q 110.967 51.5 110.767 51 Q 110.567 50.6 110.967 50.4 L 112.667 49.7 L 112.767 49.7 L 114.267 49.2 L 115.767 48.5 L 115.767 48.4 L 115.867 48.4 L 117.067 48 L 117.067 47.1 L 116.267 47.4 L 114.567 48.1 L 113.067 48.8 L 112.967 48.8 L 111.567 49.3 Q 111.167 49.4 110.967 49 Q 110.867 48.5 111.267 48.4 L 112.667 47.9 L 114.267 47.3 L 115.867 46.5 L 117.067 46.1 L 117.067 45.2 L 115.967 45.5 L 114.267 46.1 L 112.667 46.9 L 111.167 47.4 Q 110.767 47.6 110.567 47.2 Q 110.467 46.8 110.867 46.6 L 112.267 46 L 113.867 45.3 L 113.967 45.3 L 115.767 44.7 L 117.067 44.2 Q 116.967 43.7 116.967 43.3 L 116.167 43.7 L 116.067 43.7 L 114.567 44.2 L 113.167 44.6 L 111.467 45.3 Q 111.067 45.5 110.867 45.1 Q 110.767 44.6 111.167 44.5 L 112.767 43.8 L 112.867 43.8 L 114.267 43.3 L 115.767 42.9 L 116.967 42.3 L 116.967 41.4 L 116.267 41.8 L 114.667 42.5 L 113.267 43.3 L 113.167 43.3 L 111.567 43.9 Q 111.167 44 110.967 43.6 Q 110.867 43.2 111.267 43 L 112.867 42.5 L 114.267 41.7 L 115.867 41 L 116.867 40.5 L 116.867 39.4 L 116.167 39.7 L 114.467 40.2 L 112.967 40.8 L 111.467 41.4 Q 111.067 41.5 110.867 41.1 Q 110.767 40.7 111.167 40.5 L 112.567 40 L 114.167 39.4 L 115.967 38.8 L 116.767 38.5 Q 116.767 38 116.667 37.5 L 115.967 37.8 L 114.467 38.2 L 112.867 39 L 112.767 39 L 111.167 39.5 Q 110.667 39.6 110.567 39.1 Q 110.467 38.7 110.867 38.6 L 112.467 38.1 L 114.067 37.4 L 114.167 37.4 L 115.767 36.9 L 116.667 36.6 Q 116.567 36 116.067 35.8 L 114.567 36.3 L 112.967 36.9 L 111.467 37.5 Q 111.067 37.7 110.867 37.3 Q 110.667 36.9 111.067 36.7 L 112.567 36 L 112.667 36 L 114.267 35.4 L 115.867 35 L 116.467 34.8 Q 116.367 34.2 116.167 33.9 L 114.467 34.5 L 112.667 34.9 L 110.967 35.6 Q 110.567 35.8 110.367 35.3 Q 110.267 34.9 110.667 34.8 L 112.367 34.1 L 112.467 34.1 L 114.167 33.6 L 116.267 32.9 Q 116.167 32.5 116.167 32.2 L 114.667 32.7 L 113.267 33.3 L 113.167 33.3 L 111.567 33.8 Q 111.067 33.9 110.967 33.5 Q 110.867 33 111.267 32.9 L 112.867 32.5 L 114.267 31.8 L 114.367 31.8 L 116.067 31.2 Q 116.067 30.9 116.017 30.6 Q 115.967 30.3 115.967 30 L 114.267 30.4 L 112.567 31.2 L 111.067 31.9 Q 110.667 32 110.467 31.6 Q 110.267 31.2 110.667 31 L 112.167 30.4 L 113.967 29.6 L 115.867 29.1 L 115.867 28.2 L 114.867 28.6 L 113.467 29.2 L 111.867 29.7 Q 111.467 29.9 111.267 29.5 Q 111.167 29 111.567 28.9 L 113.067 28.3 L 114.567 27.8 L 115.767 27.3 Q 115.867 26.9 115.667 26.8 L 115.567 26.8 L 114.067 27.2 Q 114.167 27.2 113.467 27.3 L 111.767 28.1 Q 111.367 28.3 111.167 27.9 Q 110.967 27.5 111.367 27.3 L 113.067 26.5 L 113.167 26.5 L 114.867 25.9 L 116.167 25.5 Q 116.367 24.9 116.767 24.4 Q 117.667 23.4 118.767 23.2 Q 119.867 23 121.167 23 L 121.467 23 Q 123.767 22.9 126.117 22.9 Q 128.467 22.9 130.767 22.8 Q 132.167 22.8 133.617 22.75 Q 135.067 22.7 136.567 22.6 L 137.067 22.6 Q 138.267 22.5 139.417 22.6 Q 140.567 22.7 141.567 23.6 Q 142.567 24.6 142.717 25.7 Q 142.867 26.8 142.867 27.9 L 142.867 28.5 Q 142.867 29.8 142.917 31.15 Q 142.967 32.5 143.067 33.9 Q 143.467 35.6 143.517 37.5 Q 143.567 39.4 143.567 41.3 L 143.567 42.5 L 143.567 43.6 Q 143.767 54.9 143.567 65.8 L 143.567 67.65 L 143.567 69.5 L 143.567 70.9 L 143.567 72.3 L 143.567 72.8 Q 143.567 74.1 143.417 75.35 Q 143.267 76.6 142.367 77.6 Q 141.267 78.8 139.767 79 Q 138.267 79.2 136.767 79.2 L 136.067 79.2 L 135.467 79.2 Q 134.967 79.2 134.467 79.25 Q 133.967 79.3 133.167 79.4 Q 132.867 79.6 132.567 79.2 Q 130.667 79.3 128.667 79.3 L 128.567 79.3 Q 128.067 79.3 127.567 79.2 L 126.967 79.5 Q 126.567 79.7 126.367 79.3 L 126.367 79.2 L 123.767 79.2 L 122.867 79.5 Q 122.467 79.7 122.267 79.3 L 122.267 79.2 L 121.367 79.4 Q 120.967 79.6 120.867 79.2 Q 120.767 79.1 120.767 79 Q 120.567 78.9 120.267 78.8 L 119.467 79.1 Q 119.067 79.3 118.867 78.9 L 117.967 79.1 Q 117.567 79.3 117.467 78.9 Q 117.367 78.7 117.467 78.5 L 116.867 78.8 L 115.067 79.5 Q 114.667 79.7 114.467 79.3 Q 114.267 78.9 114.767 78.7 L 116.467 77.9 L 118.267 77.3 Q 118.167 77.1 118.067 77 L 117.167 77.4 L 115.367 78.1 L 113.867 78.6 Q 113.467 78.8 113.267 78.4 L 113.267 78.2 Q 111.067 78.9 108.567 79.15 Q 106.067 79.4 103.867 79.4 Z M 318.467 96.7 L 317.667 97.1 L 315.967 97.6 L 314.367 98 Q 313.867 98.2 313.767 97.7 L 313.367 97.7 L 312.667 98.1 L 311.267 98.8 Q 310.867 99 310.667 98.6 Q 310.467 98.2 310.867 98 L 312.367 97.2 Q 312.467 97 313.167 96.8 L 312.367 97 L 310.667 97.6 L 309.267 98.3 Q 308.867 98.5 308.667 98.1 L 308.567 98.1 L 306.967 98.6 Q 306.567 98.8 306.367 98.4 Q 306.267 97.9 306.867 97.7 Q 306.867 97.5 307.167 97.4 L 308.567 96.8 L 310.067 96.3 L 311.367 95.7 L 310.467 94.9 Q 310.267 94.8 310.067 94.65 Q 309.867 94.5 309.667 94.3 L 308.167 95 L 306.467 95.5 L 304.967 96.3 Q 304.567 96.5 304.367 96.1 L 304.167 95.9 Q 304.067 95.5 304.567 95.3 L 304.567 95.2 L 304.467 95.1 Q 304.267 94.7 304.767 94.5 L 306.467 93.7 L 307.967 93.2 L 307.967 93.1 L 309.667 92.7 Q 309.767 92.3 309.867 92.1 L 309.867 92 L 309.067 92.4 L 307.567 93.1 L 305.767 93.6 Q 305.367 93.7 305.267 93.3 Q 305.067 92.8 305.567 92.7 L 307.267 92.3 L 308.567 91.6 L 308.667 91.5 L 310.367 90.8 Q 310.567 90.5 310.567 90.3 L 310.667 90.2 L 309.967 90.4 L 308.467 91.1 L 306.767 91.8 Q 306.367 92 306.167 91.6 Q 305.967 91.2 306.367 91 L 308.167 90.3 L 309.567 89.6 L 309.667 89.6 L 311.167 89.1 Q 311.267 88.7 311.367 88.5 L 310.467 88.9 L 309.067 89.6 L 308.967 89.6 L 307.467 90.3 Q 307.067 90.5 306.867 90.1 Q 306.667 89.6 307.067 89.5 L 308.667 88.8 L 310.067 88.1 L 310.067 88 L 310.167 88 L 311.867 87.3 Q 312.067 87 312.167 86.8 L 311.167 87.2 L 309.767 88 L 309.667 88 L 308.167 88.5 Q 307.767 88.6 307.567 88.2 Q 307.467 87.7 307.867 87.6 L 309.367 87.2 L 310.767 86.4 L 312.367 85.6 L 312.767 85.5 Q 312.967 85.1 313.167 84.6 L 312.067 85.1 L 310.367 85.8 L 308.667 86.6 Q 308.167 86.8 308.067 86.4 Q 307.867 86 308.267 85.8 L 309.967 85 L 311.667 84.3 L 311.667 84.2 L 313.167 83.7 L 313.667 83.5 Q 313.767 83.3 313.867 83 L 312.767 83.5 L 311.067 84.3 L 309.367 84.9 Q 308.867 85 308.767 84.6 Q 308.567 84.2 309.067 84 L 310.767 83.5 L 312.367 82.7 L 314.067 81.9 L 314.367 81.8 Q 314.367 81.7 314.467 81.5 L 313.667 81.8 L 312.067 82.6 L 310.467 83.2 Q 310.067 83.4 309.867 83 Q 309.667 82.6 310.167 82.4 L 311.667 81.7 L 313.267 81 L 313.367 81 L 314.967 80.3 Q 315.167 79.8 315.267 79.4 L 313.867 79.9 L 312.267 80.6 L 310.667 81.1 Q 310.267 81.2 310.067 80.8 Q 309.967 80.3 310.367 80.2 L 311.967 79.8 L 313.567 79.1 L 315.167 78.4 L 315.267 78.4 L 315.767 78.3 Q 315.867 78.1 315.867 77.9 L 314.867 78.5 L 313.167 79.3 L 311.367 79.7 Q 310.967 79.9 310.867 79.4 Q 310.767 79 311.167 78.9 L 312.867 78.4 L 314.467 77.7 L 315.867 76.9 L 315.967 76.9 L 316.467 76.7 Q 316.567 76.4 316.767 76.1 L 315.667 76.5 L 313.967 77.1 L 312.367 77.9 Q 311.967 78.1 311.767 77.7 Q 311.567 77.2 311.967 77.1 L 313.667 76.3 L 315.267 75.6 L 315.367 75.6 L 317.267 75 Q 317.467 74.6 317.567 74.3 L 316.367 74.7 L 314.967 75.5 L 313.367 76.1 Q 312.967 76.3 312.767 75.9 Q 312.567 75.5 313.067 75.3 L 314.567 74.7 L 315.967 73.9 L 316.067 73.9 L 318.067 73.2 Q 318.067 73 318.267 72.7 Q 318.167 72.6 317.867 72 L 316.967 72.3 L 315.267 72.8 L 313.567 73.4 L 313.567 73.5 L 311.767 73.9 Q 311.367 74 311.267 73.6 Q 311.067 73.2 311.567 73.1 L 313.267 72.6 L 314.967 71.9 L 315.067 71.9 L 316.667 71.5 L 317.267 71.3 Q 316.967 70.9 316.767 70.5 L 316.167 70.7 L 314.767 71.4 L 313.267 71.9 L 311.467 72.5 Q 311.067 72.6 310.967 72.2 Q 310.767 71.8 311.267 71.6 L 312.967 71.1 L 314.367 70.5 L 316.267 69.7 Q 316.167 69.4 315.967 69.15 Q 315.767 68.9 315.467 68.7 L 313.867 69.1 L 312.267 69.8 L 310.667 70.5 Q 310.267 70.6 310.067 70.2 Q 309.867 69.8 310.367 69.6 L 311.967 69 L 313.467 68.3 L 313.567 68.3 L 315.367 67.8 Q 315.267 67.5 315.167 67.3 Q 315.067 67.1 314.967 66.8 L 314.967 66.9 L 314.867 66.9 L 313.367 67.3 L 311.767 67.9 L 309.967 68.4 Q 309.567 68.6 309.367 68.2 Q 309.267 67.7 309.667 67.6 L 311.467 67 L 313.067 66.5 L 314.667 66 Q 314.567 65.7 314.467 65.45 Q 314.367 65.2 314.167 64.9 L 312.667 65.5 L 311.167 66.1 L 309.467 66.5 Q 309.067 66.6 308.967 66.2 Q 308.767 65.8 309.267 65.7 L 310.867 65.2 L 312.367 64.6 L 313.867 64.1 L 314.067 64 L 313.767 63.1 L 313.167 63.3 L 311.667 63.9 L 311.567 63.9 L 309.967 64.3 L 308.567 65 Q 308.167 65.2 307.967 64.8 Q 307.767 64.4 308.167 64.2 L 309.667 63.5 L 309.767 63.5 L 311.367 63 L 312.867 62.5 L 313.467 62.2 Q 313.367 61.7 313.167 61.3 L 312.667 61.6 L 310.967 62.2 L 309.167 62.8 L 307.467 63.3 Q 306.967 63.4 306.867 63 Q 306.767 62.5 307.167 62.4 L 308.967 61.9 L 310.667 61.4 L 312.267 60.8 L 312.867 60.4 Q 312.667 59.8 312.467 59.4 L 311.667 59.8 L 309.967 60.4 L 308.567 61.2 L 306.767 61.9 Q 306.367 62.1 306.167 61.7 Q 306.067 61.3 306.467 61.1 L 308.167 60.4 L 309.567 59.6 L 309.667 59.6 L 311.267 58.9 L 312.167 58.5 Q 311.967 58 311.667 57.4 L 310.867 57.7 L 309.267 58.5 L 307.667 59.2 L 307.667 59.3 L 305.967 59.7 Q 305.567 59.9 305.467 59.4 Q 305.367 59 305.767 58.9 L 307.367 58.4 L 308.867 57.7 L 310.467 56.9 L 310.567 56.9 L 311.267 56.6 Q 311.067 56.1 310.767 55.7 L 310.167 55.9 L 308.767 56.5 L 307.367 57.1 L 307.267 57.1 L 305.767 57.6 Q 305.267 57.7 305.167 57.3 Q 305.067 56.9 305.467 56.7 L 306.967 56.3 L 308.367 55.6 L 308.467 55.6 L 310.267 54.9 Q 309.967 54.6 309.767 54.3 L 309.717 54.3 L 309.667 54.3 L 309.667 54.2 Q 309.567 54.2 309.367 54.3 L 307.567 55 L 307.567 55.1 L 306.067 55.5 L 304.367 56.1 Q 303.967 56.2 303.767 55.8 Q 303.667 55.4 304.067 55.2 L 305.867 54.7 L 307.267 54.2 L 309.067 53.4 L 308.467 52.2 L 307.267 52.8 L 305.767 53.5 L 304.267 54.1 Q 303.767 54.3 303.667 53.9 Q 303.467 53.5 303.867 53.3 L 305.367 52.7 L 306.867 52 L 308.167 51.4 Q 308.067 51.1 307.917 50.85 Q 307.767 50.6 307.667 50.3 L 305.967 51 L 304.267 51.8 L 302.867 52.2 Q 302.367 52.4 302.267 51.9 Q 302.167 51.5 302.567 51.4 L 303.967 50.9 L 305.567 50.2 L 305.667 50.2 L 307.367 49.5 L 307.467 49.5 Q 307.267 48.8 307.067 48.5 L 305.567 49.3 L 303.867 50 L 303.767 50 L 302.167 50.6 Q 301.767 50.8 301.567 50.3 Q 301.467 49.9 301.867 49.8 L 303.467 49.2 L 305.167 48.5 L 306.667 47.7 Q 306.767 47.7 306.867 47.6 Q 306.867 47.4 306.717 47.2 Q 306.567 47 306.167 46.9 L 304.467 47.6 L 302.767 48.4 L 301.167 49.1 Q 300.767 49.3 300.567 48.8 Q 300.467 48.4 300.867 48.2 L 302.367 47.6 L 304.167 46.8 L 305.767 46.1 L 305.867 46 L 306.367 45.8 Q 306.267 45.2 305.667 45.1 L 303.967 45.6 L 302.467 46.2 L 300.667 46.7 Q 300.267 46.8 300.167 46.3 Q 300.067 45.9 300.467 45.8 L 302.167 45.3 L 303.767 44.8 L 305.367 44.2 L 305.867 44 Q 305.667 43.4 305.467 42.9 L 304.867 43 L 303.367 43.5 L 301.767 44.3 L 301.667 44.3 L 300.067 44.7 Q 299.567 44.9 299.467 44.4 Q 299.367 44 299.767 43.9 L 301.367 43.4 L 302.967 42.7 L 303.067 42.7 L 303.067 42.6 L 305.067 42 L 304.667 41 L 304.067 41.2 L 302.467 41.9 L 300.767 42.4 L 299.167 43 Q 298.767 43.2 298.567 42.7 Q 298.467 42.3 298.867 42.2 L 300.567 41.6 L 302.167 41 L 303.667 40.4 Q 303.767 40.4 304.167 40.2 Q 303.867 39.8 303.567 39.3 L 303.067 39.5 L 301.267 40 L 299.667 40.5 L 297.967 41 Q 297.567 41.1 297.467 40.7 Q 297.267 40.2 297.767 40.1 L 299.367 39.7 L 300.967 39.1 L 301.067 39.1 L 303.167 38.5 L 302.567 37.6 L 301.167 38.1 L 299.667 38.9 L 297.967 39.4 Q 297.567 39.5 297.467 39.1 Q 297.367 38.6 297.767 38.5 L 299.367 38.1 L 300.767 37.3 L 302.267 36.7 Q 301.967 36.2 301.767 36 L 300.267 36.7 L 298.467 37.2 L 297.067 37.7 Q 296.667 37.9 296.467 37.5 Q 296.267 37.1 296.767 36.9 L 298.167 36.3 L 298.267 36.3 L 299.967 35.9 L 301.467 35.2 L 301.117 34.5 Q 300.967 34.2 300.767 33.9 L 299.167 34.5 L 297.767 34.9 L 296.067 35.7 Q 295.667 35.9 295.467 35.5 Q 295.367 35.1 295.767 34.9 L 297.367 34.1 L 297.467 34.1 L 298.867 33.6 L 300.467 33.1 Q 300.267 32.6 300.067 32.2 L 298.567 32.9 L 296.867 33.5 L 295.167 34 Q 294.767 34.1 294.667 33.7 Q 294.467 33.2 294.967 33.1 L 296.567 32.7 L 298.167 32 L 299.667 31.4 L 299.267 30.6 L 297.767 31.3 L 295.967 31.9 L 294.467 32.6 Q 294.067 32.7 293.867 32.3 Q 293.667 31.9 294.067 31.7 L 295.667 31.1 L 295.667 31 L 297.467 30.5 L 298.967 29.8 Q 298.767 29.5 298.667 29.25 Q 298.567 29 298.467 28.8 L 296.867 29.5 L 295.867 29.8 L 295.267 30.1 L 295.167 30.1 L 293.467 30.6 Q 293.067 30.8 292.867 30.4 Q 292.767 30.1 292.967 29.9 L 292.867 29.8 Q 292.667 29.4 293.267 29.2 Q 293.267 29.1 293.367 29.1 L 294.867 28.4 L 296.467 27.8 L 298.067 27.1 Q 298.067 26.6 297.867 26.5 L 296.167 27.1 Q 295.767 27.3 295.567 26.9 Q 295.467 26.5 295.867 26.3 L 297.567 25.6 L 299.067 25.1 Q 299.567 24.5 300.067 23.95 Q 300.567 23.4 301.267 23 L 301.667 22.9 Q 301.967 22.8 302.067 22.8 L 303.867 22.8 L 305.667 22.8 Q 308.567 22.7 311.417 22.75 Q 314.267 22.8 317.067 22.8 L 317.567 22.8 Q 318.767 22.9 319.867 23 Q 320.967 23.1 321.967 23.8 Q 323.067 24.6 323.567 25.75 Q 324.067 26.9 324.467 28.1 Q 325.567 30.6 326.417 33.3 Q 327.267 36 328.367 38.6 L 328.367 38.7 L 328.467 38.7 L 328.667 39.3 L 328.867 39.2 L 330.367 38.6 L 332.067 38.1 L 333.567 37.4 L 333.667 37.4 L 334.167 37.2 Q 334.367 36.9 334.367 36.8 L 332.967 37.5 L 332.867 37.5 L 331.267 38 L 329.667 38.5 Q 329.267 38.6 329.167 38.2 Q 328.967 37.8 329.467 37.7 L 330.967 37.2 L 332.567 36.6 L 334.167 35.9 L 334.767 35.6 Q 334.867 35.4 334.967 35.1 L 333.667 35.5 L 331.967 36.2 L 330.467 36.8 Q 330.067 37 329.867 36.6 Q 329.667 36.2 330.067 36 L 331.667 35.4 L 333.367 34.7 L 334.767 34.2 L 335.467 33.9 Q 335.467 33.7 335.567 33.4 L 334.367 33.9 L 332.667 34.6 L 331.167 35.2 Q 330.767 35.4 330.667 34.9 Q 330.467 34.5 330.867 34.4 L 332.367 33.8 L 334.067 33 L 336.067 32.2 Q 336.267 31.8 336.367 31.4 L 334.967 31.8 L 333.567 32.5 L 331.867 33.2 Q 331.467 33.4 331.267 33 Q 331.067 32.6 331.467 32.4 L 333.167 31.7 L 334.567 31 L 334.667 31 L 336.167 30.5 L 336.767 30.3 Q 336.967 29.8 336.967 29.6 L 335.267 30.4 L 335.167 30.4 L 333.467 30.9 L 331.767 31.5 Q 331.367 31.6 331.267 31.2 Q 331.067 30.8 331.567 30.6 L 333.167 30.1 L 334.867 29.5 L 336.667 28.8 L 336.667 28.7 L 337.467 28.5 L 337.567 28.4 Q 337.567 28.3 337.767 27.9 L 336.467 28.3 L 335.067 29.1 L 333.367 29.7 Q 332.967 29.9 332.767 29.5 Q 332.667 29.1 333.067 28.9 L 334.667 28.2 L 336.067 27.5 L 336.167 27.5 L 337.567 27 L 338.167 26.8 Q 338.267 26.5 338.367 26.3 L 337.367 26.7 L 335.767 27.4 L 334.267 27.9 Q 333.867 28 333.667 27.6 Q 333.567 27.1 333.967 27 L 335.467 26.5 L 337.067 25.9 L 339.067 25.1 Q 339.567 24.5 340.067 24.1 Q 341.167 23.3 342.417 23.1 Q 343.667 22.9 344.867 22.8 Q 347.667 22.4 350.517 22.4 Q 353.367 22.4 356.067 22.6 L 357.017 22.6 Q 357.467 22.6 357.867 22.7 Q 358.167 22.7 358.667 22.6 L 359.467 22.6 Q 359.867 22.6 360.367 22.9 Q 361.967 23.8 362.917 24.95 Q 363.867 26.1 363.267 28.1 Q 363.167 28.6 362.917 29.15 Q 362.667 29.7 362.467 30.2 Q 362.267 30.7 362.067 31.15 Q 361.867 31.6 361.667 32.1 Q 361.567 32.1 361.467 32.3 L 361.367 32.5 Q 359.367 34.9 358.467 38.15 Q 357.567 41.4 356.617 44.65 Q 355.667 47.9 353.567 50.3 Q 352.467 52.5 351.417 54.75 Q 350.367 57 349.367 59.2 Q 348.567 61.1 347.867 63.05 Q 347.167 65 346.367 66.9 Q 345.567 68.8 344.717 70.55 Q 343.867 72.3 342.967 74.1 Q 342.067 76.3 341.217 78.5 Q 340.367 80.7 339.467 82.9 Q 338.567 85.2 337.617 87.45 Q 336.667 89.7 335.667 92 Q 335.167 93.2 334.617 94.35 Q 334.067 95.5 332.967 96.3 Q 331.767 97.1 330.417 97.15 Q 329.067 97.2 327.667 97.1 L 327.067 97.4 L 325.367 98.1 L 325.267 98.1 L 323.767 98.5 Q 323.367 98.7 323.167 98.2 Q 323.067 97.8 323.467 97.7 L 325.067 97.2 L 325.567 97 L 325.667 96.9 Q 325.367 96.9 324.767 97.1 L 321.667 98 Q 321.267 98.1 321.167 97.9 L 320.067 98.2 Q 319.867 98.3 319.267 98.1 L 317.767 98.6 Q 317.367 98.8 317.267 98.4 L 316.367 98.7 Q 315.967 98.9 315.767 98.5 Q 315.667 98.1 316.067 97.9 L 317.567 97.2 L 318.667 96.7 L 318.467 96.7 Z M 251.967 23.9 L 253.467 23.5 L 254.667 23.1 L 255.467 22.8 L 255.467 22 L 254.167 22.4 L 252.367 22.9 L 250.767 23.5 Q 250.367 23.7 250.167 23.3 Q 250.067 22.8 250.467 22.7 L 252.067 22 L 252.167 22 L 253.867 21.5 L 255.467 21 L 255.467 20.3 L 254.267 20.9 L 252.667 21.6 L 252.567 21.6 L 251.067 22.1 Q 250.667 22.2 250.467 21.8 Q 250.367 21.4 250.767 21.2 L 252.267 20.8 L 253.867 20 L 255.467 19.3 L 255.467 18.3 L 254.267 18.8 L 252.667 19.5 L 251.067 20.1 Q 250.667 20.2 250.467 19.8 Q 250.367 19.4 250.767 19.2 L 252.267 18.7 L 253.867 17.9 L 253.967 17.9 L 255.567 17.3 L 255.567 16.7 L 254.067 17.2 L 252.567 17.9 L 250.767 18.7 Q 250.367 18.9 250.167 18.4 Q 249.967 18 250.467 17.9 L 252.167 17.1 L 253.667 16.3 L 253.767 16.3 L 255.567 15.7 Q 255.567 15.3 255.667 14.8 L 253.867 15.5 L 252.167 16.3 L 250.567 16.9 Q 250.167 17 249.967 16.6 Q 249.867 16.2 250.267 16 L 251.767 15.5 L 253.567 14.7 L 255.667 13.8 Q 255.767 13 255.567 12.8 L 253.767 13.5 L 252.367 14.3 L 252.267 14.3 L 250.567 14.8 Q 250.067 14.9 249.967 14.4 Q 249.867 14 250.267 13.9 L 251.967 13.5 L 253.367 12.7 L 253.467 12.7 L 255.167 11.9 L 255.267 11.9 L 255.767 11.7 L 255.767 11.1 L 254.167 11.7 L 252.467 12.4 L 250.867 13.1 Q 250.467 13.3 250.267 12.9 Q 250.067 12.5 250.467 12.3 L 252.067 11.6 L 252.067 11.5 L 253.867 10.9 L 255.867 10.1 Q 255.867 9.5 255.567 9.3 L 255.467 9.3 L 253.767 9.9 L 251.967 10.4 L 250.467 10.9 Q 250.067 11.1 249.867 10.7 Q 249.767 10.2 250.167 10.1 L 251.667 9.5 L 251.767 9.5 L 253.467 9.1 L 255.167 8.5 L 256.067 8.1 Q 256.167 7.6 256.367 7.3 L 254.767 8 L 253.267 8.5 L 251.767 9.2 Q 251.367 9.4 251.167 9 Q 250.967 8.6 251.367 8.4 L 252.467 7.9 Q 252.467 7.8 252.367 7.8 Q 252.267 7.3 252.667 7.2 L 254.467 6.6 L 256.167 6.2 L 257.167 5.8 Q 258.067 4.8 259.967 4.3 Q 260.667 4.1 261.367 4.1 L 262.667 4.1 L 263.417 4.1 Q 263.767 4.1 264.067 4 Q 266.067 3.9 268.017 3.85 Q 269.967 3.8 271.967 3.9 Q 272.967 3.9 273.917 3.95 Q 274.867 4 275.867 4 L 276.467 4 Q 276.867 4 277.267 4.05 Q 277.667 4.1 278.067 4.2 Q 281.267 5 281.867 8.2 Q 281.967 8.9 281.917 9.55 Q 281.867 10.2 281.867 10.8 Q 281.767 11.1 281.767 11.4 L 281.767 12.1 Q 281.667 14.3 281.667 16.5 L 281.667 20.9 Q 281.567 21.7 281.567 22.7 L 281.567 22.8 L 281.667 22.8 L 283.467 22.8 Q 285.267 22.9 287.017 23 Q 288.767 23.1 290.567 23.1 Q 290.767 23.1 291.067 23.2 Q 292.267 23.2 293.367 23.4 Q 294.467 23.6 295.367 24.5 Q 295.967 25 296.217 25.7 Q 296.467 26.4 296.567 27.2 Q 296.667 27.5 296.667 27.85 L 296.667 28.6 Q 296.567 29 296.567 29.2 L 296.567 30.85 L 296.567 32.6 Q 296.467 33.9 296.467 35.2 L 296.467 37.7 L 296.467 38.4 L 296.467 39.05 L 296.467 39.8 Q 296.067 41.6 295.217 42.5 Q 294.367 43.4 292.567 43.7 L 292.467 43.8 L 292.267 43.8 L 291.217 43.8 Q 290.667 43.8 289.867 43.9 L 288.167 44.7 L 286.667 45.2 Q 286.267 45.4 286.067 45 Q 285.967 44.6 286.367 44.4 L 288.067 43.7 L 287.067 43.7 L 286.067 44 L 284.667 44.5 L 284.567 44.5 L 283.167 44.9 Q 282.767 45.1 282.567 44.7 Q 282.467 44.2 282.867 44.1 L 283.967 43.7 Q 284.067 43.7 284.367 43.6 L 283.567 43.6 L 282.467 43.9 L 281.567 44.3 L 281.567 45.2 L 281.567 46.3 L 281.567 47.4 L 281.567 50 Q 281.567 51.3 281.767 52.5 Q 281.867 53.4 281.967 54.35 Q 282.067 55.3 282.967 55.8 Q 283.467 56.2 284.217 56.2 L 285.667 56.2 L 286.467 56.2 Q 287.867 56.2 289.317 56.3 Q 290.767 56.4 292.167 56.6 Q 293.567 56.7 294.817 56.9 Q 296.067 57.1 297.067 58.1 Q 298.067 59.1 298.217 60.25 Q 298.367 61.4 298.367 62.7 L 298.367 63.1 Q 298.367 65.3 298.417 67.55 Q 298.467 69.8 298.467 72 L 298.467 72.5 Q 298.467 73.7 298.367 74.8 Q 298.267 75.9 297.267 76.9 Q 296.367 77.8 295.267 77.95 Q 294.167 78.1 292.967 78.1 L 292.467 78.1 L 289.667 78.1 L 288.567 78.5 L 286.867 79.2 Q 286.567 79.4 286.367 79.1 L 285.267 79.4 Q 284.867 79.6 284.667 79.1 L 283.367 79.5 Q 282.967 79.7 282.867 79.3 L 282.867 79.2 L 281.267 79.8 Q 280.767 80 280.667 79.6 Q 280.467 79.2 280.867 79 L 282.567 78.4 L 281.767 78.5 L 280.967 78.9 L 279.467 79.6 Q 279.067 79.8 278.867 79.4 Q 278.667 79 279.067 78.8 L 278.967 78.8 L 277.767 79.4 Q 277.367 79.6 277.167 79.2 Q 277.067 79 277.167 78.8 L 275.867 79.1 Q 275.767 79.2 275.667 79.2 Q 275.467 79.2 275.067 79 L 273.567 79.5 Q 273.067 79.6 272.967 79.2 Q 272.867 78.8 273.267 78.6 L 274.467 78.3 Q 274.267 78.3 274.067 78.2 L 272.967 78.6 L 271.267 79.3 Q 270.867 79.5 270.667 79.1 Q 270.567 78.9 270.667 78.7 L 269.367 79.1 Q 268.967 79.3 268.867 78.8 Q 268.667 78.4 269.067 78.3 L 271.267 77.5 Q 271.167 77.5 271.067 77.4 L 270.867 77.4 L 270.767 77.3 Q 270.567 77.2 270.167 77.4 L 268.467 78.1 L 266.667 78.6 Q 266.267 78.7 266.167 78.3 Q 266.067 77.8 266.467 77.7 L 268.167 77.3 L 269.567 76.6 Q 269.467 76.6 269.367 76.5 L 268.467 76.9 L 268.367 76.9 L 266.867 77.4 L 265.267 78.1 Q 264.867 78.3 264.667 77.9 Q 264.467 77.5 264.867 77.3 L 266.467 76.6 L 265.067 76.9 L 263.367 77.5 Q 262.967 77.7 262.867 77.2 Q 262.667 76.8 263.167 76.7 L 264.767 76.1 L 266.367 75.6 L 267.367 75.1 L 266.967 74.9 Q 266.767 74.8 266.267 74.8 L 266.167 74.8 L 264.567 75.3 L 262.967 75.8 L 261.167 76.5 Q 260.767 76.7 260.567 76.3 Q 260.467 75.9 260.867 75.7 L 262.567 74.9 L 262.667 74.9 L 264.367 74.4 L 265.867 74 Q 265.567 73.8 265.267 73.5 L 264.067 74.1 L 262.467 74.8 L 260.867 75.5 L 259.367 76.1 Q 258.967 76.2 258.767 75.8 Q 258.567 75.4 259.067 75.2 L 260.567 74.6 L 262.067 74 L 263.767 73.2 L 264.467 72.9 L 263.767 72.2 L 262.667 72.6 L 261.267 73.1 L 259.567 73.9 L 257.967 74.7 Q 257.567 74.9 257.367 74.4 Q 257.167 74 257.567 73.9 L 259.167 73.1 L 260.867 72.3 L 262.367 71.7 L 262.967 71.5 L 262.167 70.9 L 260.967 71.2 L 259.467 72 L 257.667 72.6 L 256.167 73.1 Q 255.667 73.2 255.567 72.8 Q 255.467 72.4 255.867 72.2 L 257.367 71.8 L 259.067 71.1 L 260.667 70.4 L 260.767 70.4 L 261.467 70.1 Q 261.067 69.8 260.667 69.4 L 259.567 69.9 L 257.767 70.5 L 256.167 71.2 L 254.567 71.9 Q 254.167 72.1 253.967 71.7 Q 253.767 71.3 254.167 71.1 L 255.767 70.3 L 257.467 69.7 L 257.467 69.6 L 259.167 69.1 L 260.067 68.7 Q 259.667 68.3 259.267 67.8 L 258.467 68.2 L 256.867 68.9 L 255.267 69.6 L 253.667 70.4 Q 253.267 70.6 253.067 70.2 Q 252.867 69.8 253.267 69.6 L 254.967 68.8 L 256.467 68 L 258.167 67.4 L 258.667 67.1 Q 258.167 66.6 257.767 66 L 257.467 66.1 L 256.067 66.8 L 255.967 66.8 L 254.467 67.3 L 253.067 68 Q 252.667 68.2 252.467 67.8 Q 252.267 67.4 252.567 67.2 L 254.067 66.5 L 254.167 66.4 L 255.667 66 L 257.067 65.3 L 257.167 65.3 L 257.367 65.2 Q 257.267 65 257.167 64.75 Q 257.067 64.5 256.967 64.3 L 255.167 64.8 L 253.767 65.5 L 253.667 65.5 L 252.067 66 Q 251.667 66.1 251.467 65.7 Q 251.367 65.2 251.767 65.1 L 253.467 64.7 L 254.867 64 L 256.767 63.4 L 256.567 62.8 Q 256.467 62.5 256.167 62.3 L 254.667 63 L 253.067 63.5 L 251.567 64.2 Q 251.167 64.4 250.967 64.1 Q 250.767 63.7 251.167 63.4 L 252.667 62.7 L 252.767 62.6 L 254.367 62.2 L 255.767 61.4 L 256.267 61.2 L 256.067 60 L 254.567 60.8 L 253.067 61.3 L 251.367 61.9 Q 250.967 62 250.867 61.6 Q 250.667 61.2 251.167 61.1 L 252.767 60.5 L 254.167 59.9 L 255.667 59.2 L 255.767 59.2 L 255.967 59.1 Q 255.867 58.4 255.667 58.2 L 254.267 58.8 L 252.567 59.5 L 250.967 60.1 Q 250.567 60.3 250.367 59.9 Q 250.167 59.5 250.567 59.3 L 252.267 58.6 L 253.867 58 L 255.367 57.4 L 255.867 57.2 L 255.867 56.6 Q 255.767 56.2 255.767 56 L 254.267 56.6 L 252.767 57.3 L 251.267 57.9 Q 250.867 58.1 250.667 57.7 Q 250.467 57.3 250.867 57.1 L 252.367 56.4 L 253.967 55.8 L 255.767 55.1 Q 255.767 54.5 255.667 54.2 L 253.967 54.9 L 252.567 55.6 L 251.067 56.4 Q 250.667 56.6 250.467 56.2 Q 250.267 55.8 250.667 55.6 L 252.167 54.8 L 253.567 54.1 L 255.267 53.4 L 255.667 53.2 L 255.667 52.3 L 254.167 52.7 L 252.767 53.3 L 252.667 53.3 L 250.967 53.8 Q 250.567 54 250.367 53.5 Q 250.267 53.1 250.667 53 L 252.367 52.4 L 253.867 51.9 L 253.867 51.8 L 255.567 51.3 L 255.567 50.6 L 253.867 51.3 L 252.367 52.1 L 250.767 52.8 Q 250.367 52.9 250.167 52.5 Q 249.967 52.1 250.467 51.9 L 251.967 51.3 L 253.467 50.5 L 255.567 49.6 Q 255.567 48.9 255.467 48.6 L 254.067 49.3 L 252.567 49.9 L 250.967 50.5 Q 250.567 50.7 250.367 50.2 Q 250.267 49.8 250.667 49.7 L 252.167 49.1 L 253.767 48.5 L 255.367 47.7 L 255.467 47.6 L 255.467 46.9 L 253.767 47.4 L 252.167 48 L 250.467 48.7 Q 250.067 48.9 249.867 48.5 Q 249.667 48.1 250.067 47.9 L 251.767 47.2 L 251.867 47.1 L 253.467 46.6 L 255.367 45.9 L 255.367 45.1 L 253.967 45.8 L 252.467 46.2 L 251.067 46.8 Q 250.667 47 250.467 46.5 Q 250.367 46.1 250.767 46 L 252.167 45.4 L 252.267 45.4 L 253.667 44.9 L 255.367 44.1 L 255.367 43.3 L 255.367 43.2 L 255.167 43.2 L 255.067 43.2 L 254.067 43.6 L 252.367 44.3 L 250.767 44.8 Q 250.367 45 250.167 44.6 Q 250.067 44.1 250.467 44 L 252.167 43.4 L 251.567 43.4 L 250.367 44 L 248.767 44.5 Q 248.367 44.7 248.167 44.3 L 248.167 44.2 L 247.067 44.5 Q 246.967 44.6 246.767 44.5 L 245.267 45.1 Q 244.867 45.3 244.667 44.9 Q 244.467 44.5 244.567 44.5 L 242.867 45.1 Q 242.467 45.3 242.267 44.9 Q 242.167 44.5 242.567 44.3 L 244.167 43.6 L 245.967 43 L 246.567 42.7 L 246.267 42.4 Q 246.167 42.3 245.967 42.2 L 245.967 42.3 L 244.267 42.7 L 242.667 43.4 L 241.167 43.9 Q 240.767 44.1 240.567 43.7 Q 240.367 43.2 240.867 43.1 L 242.367 42.5 L 243.867 41.9 L 243.967 41.9 L 243.967 41.8 L 245.567 41.4 L 245.367 40.8 L 245.167 40.2 L 243.467 40.7 L 242.067 41.5 L 240.267 42.2 Q 239.867 42.4 239.667 42 Q 239.467 41.6 239.967 41.4 L 241.667 40.7 L 243.067 39.9 L 243.167 39.9 L 245.267 39.2 Q 245.267 38.8 245.167 38.6 L 243.567 39.4 L 240.667 40.3 Q 240.267 40.5 240.067 40 Q 239.967 39.6 240.367 39.5 L 241.867 39 L 243.267 38.5 L 244.767 37.8 L 245.267 37.6 Q 245.267 37 245.167 36.8 L 245.067 36.8 L 243.367 37.3 L 241.967 38 L 240.367 38.7 Q 239.967 38.9 239.767 38.4 Q 239.567 38 240.067 37.8 L 241.567 37.2 L 242.967 36.4 L 243.067 36.4 L 245.267 35.8 Q 245.267 35.2 245.167 35 L 243.667 35.6 L 242.167 36.1 L 240.667 36.7 Q 240.267 36.9 240.067 36.5 Q 239.867 36.1 240.267 35.9 L 241.767 35.3 L 241.767 35.2 L 241.867 35.2 L 243.367 34.8 L 244.767 34.1 Q 244.867 34.1 245.167 34 Q 245.167 33.5 245.067 33.2 L 243.267 34 L 241.867 34.6 L 241.767 34.6 L 240.267 35 Q 239.867 35.2 239.667 34.7 Q 239.567 34.3 239.967 34.2 L 241.567 33.7 L 242.967 33.2 L 244.667 32.4 Q 244.767 32.4 245.167 32.3 Q 245.167 32.2 245.067 32 L 245.067 31.9 L 245.067 31.8 L 245.067 31.6 L 243.567 32.3 L 241.867 32.8 L 240.367 33.3 Q 239.967 33.4 239.767 33 Q 239.667 32.6 240.067 32.4 L 241.667 32 L 243.267 31.4 L 245.067 30.7 Q 245.067 30.3 244.967 29.9 L 243.467 30.4 L 241.767 31.1 L 239.967 31.9 Q 239.567 32 239.367 31.6 Q 239.167 31.2 239.667 31 L 241.367 30.3 L 243.167 29.6 L 244.967 29 L 244.967 28.75 L 244.967 28.5 L 244.967 28.4 L 244.967 28.2 L 244.967 28.1 L 243.767 28.5 L 242.167 29.2 L 242.067 29.2 L 240.367 29.6 Q 239.867 29.8 239.767 29.3 Q 239.667 28.9 240.067 28.8 L 241.867 28.3 L 243.467 27.7 L 245.167 27.1 Q 245.267 26.8 245.367 26.6 L 244.667 26.9 L 242.867 27.6 Q 242.567 27.8 242.367 27.6 L 241.267 28.1 Q 240.867 28.3 240.667 27.9 Q 240.467 27.5 240.867 27.3 L 242.467 26.5 L 242.567 26.5 L 243.967 26 L 245.267 25.7 L 245.967 25.4 L 246.467 25.1 Q 246.867 24.7 247.517 24.5 Q 248.167 24.3 249.067 24 Q 249.267 24 249.467 24.1 Q 249.767 24 250.367 24.1 L 251.067 24.1 Q 251.567 24 251.767 24 Q 251.867 24 251.967 23.9 Z M 151.467 32.4 L 153.167 31.9 Q 153.367 31.8 153.567 31.9 Q 153.667 31.6 153.867 31.4 L 152.967 31.7 L 151.367 32.3 L 149.767 32.7 L 148.067 33.4 Q 147.667 33.5 147.467 33.1 Q 147.267 32.7 147.767 32.5 L 149.267 32 Q 148.967 31.9 148.867 31.7 Q 148.767 31.3 149.167 31.1 L 150.467 30.5 Q 150.267 30.5 150.167 30.3 Q 150.067 29.8 150.467 29.7 L 152.167 29 Q 152.067 28.6 152.467 28.5 L 154.067 27.9 Q 153.967 27.4 154.367 27.3 L 156.267 26.7 Q 156.267 26.6 156.767 26.5 Q 158.067 24.6 159.267 23.4 L 159.467 23.3 L 159.667 23.1 Q 161.167 22.4 162.817 21.95 Q 164.467 21.5 166.067 21.3 Q 168.267 20.9 171.367 21.1 Q 174.467 21.3 177.467 22.05 Q 180.467 22.8 182.167 24.2 Q 183.167 24.7 184.167 25.4 L 185.067 25.1 Q 185.367 24.2 186.067 23.5 Q 187.067 22.6 188.267 22.55 Q 189.467 22.5 190.767 22.6 L 191.167 22.6 Q 193.967 22.9 196.817 23.15 Q 199.667 23.4 202.467 23.6 Q 203.467 23.7 204.367 23.8 Q 205.767 23.8 207.017 23.95 Q 208.267 24.1 209.267 25.3 Q 209.767 25.9 209.967 26.6 Q 210.167 27.3 210.167 28.1 Q 210.267 28.8 210.217 29.5 Q 210.167 30.2 210.067 30.9 Q 209.967 31.3 209.917 31.65 Q 209.867 32 209.867 32.4 L 209.867 32.5 Q 209.467 35 209.417 37.6 Q 209.367 40.2 209.367 42.9 Q 209.467 44.6 209.467 46.35 Q 209.467 48.1 209.267 49.8 Q 208.967 54.8 209.017 60.1 Q 209.067 65.4 209.467 70.4 Q 209.467 70.8 209.517 71.25 Q 209.567 71.7 209.567 72.1 Q 209.667 74 209.667 75.9 Q 209.667 77.8 209.467 79.7 Q 209.067 82.8 207.817 86.2 Q 206.567 89.6 204.267 91.9 Q 202.867 93.4 201.067 94.7 Q 199.267 95.9 197.317 96.8 Q 195.367 97.7 193.367 98.3 Q 191.867 98.8 190.217 99.15 Q 188.567 99.5 186.867 99.7 L 186.267 99.9 Q 185.967 100.1 185.767 99.8 Q 185.067 99.9 184.267 100 L 183.567 100.3 L 181.867 100.7 Q 181.667 100.8 181.467 100.6 L 180.667 100.9 Q 180.267 101 180.067 100.6 Q 180.067 100.5 179.867 100.6 L 178.267 101.3 Q 177.767 101.4 177.667 101 Q 177.567 100.9 177.567 100.8 L 176.167 101.4 Q 175.767 101.6 175.567 101.1 L 175.567 101 L 173.967 101.4 Q 173.467 101.6 173.367 101.1 Q 173.267 100.8 173.567 100.6 L 173.567 100.5 L 172.667 100.7 L 171.167 101.4 Q 170.767 101.6 170.667 101.1 Q 170.467 100.9 170.667 100.7 L 169.367 101 Q 168.967 101.2 168.867 100.8 L 167.167 101.2 Q 166.767 101.3 166.667 100.9 Q 166.467 100.5 166.967 100.3 L 168.667 99.9 L 169.267 99.6 Q 168.867 99.5 168.567 99.5 L 166.867 99.9 L 165.467 100.4 Q 165.067 100.5 164.867 100.1 Q 164.767 99.7 165.167 99.5 L 166.667 99 Q 166.567 99 166.367 98.9 L 165.167 99.4 L 163.467 100.1 Q 163.067 100.2 162.867 99.8 L 162.867 99.6 L 161.567 100 Q 161.167 100.2 160.967 99.7 Q 160.867 99.3 161.267 99.2 L 162.867 98.6 L 163.867 98.1 Q 163.667 98 163.417 97.9 Q 163.167 97.8 162.867 97.7 L 162.767 97.7 L 161.167 98.2 L 159.367 98.7 Q 158.967 98.8 158.867 98.4 Q 158.767 97.9 159.167 97.8 L 160.867 97.3 L 161.867 97.1 Q 161.567 96.9 161.367 96.7 L 160.567 97 L 158.967 97.5 L 157.467 98.1 Q 156.967 98.2 156.867 97.8 Q 156.667 97.4 157.067 97.2 L 158.667 96.7 L 160.467 96.1 Q 160.167 95.9 159.967 95.8 L 158.767 96.2 L 157.067 96.8 L 156.967 96.8 L 155.367 97.3 Q 154.967 97.4 154.767 97 Q 154.667 96.5 155.067 96.4 L 156.767 96 L 158.467 95.3 L 158.967 95.1 Q 158.567 94.9 158.167 94.6 L 157.167 94.8 L 155.567 95.3 L 153.867 95.8 Q 153.467 95.9 153.367 95.4 Q 153.167 95 153.667 94.9 L 155.267 94.4 L 157.267 93.9 Q 156.967 93.6 156.567 93.3 L 155.467 93.8 L 153.967 94.6 L 152.567 95.4 Q 152.167 95.6 151.967 95.2 Q 151.767 94.8 152.167 94.6 L 153.567 93.8 L 155.067 93 L 155.867 92.6 Q 155.567 92.4 155.267 92.1 L 153.967 92.7 L 152.367 93.3 L 150.967 94 Q 150.567 94.2 150.367 93.8 Q 150.167 93.3 150.567 93.2 L 152.067 92.5 L 153.567 91.8 L 154.567 91.4 Q 154.067 91 153.667 90.5 L 152.267 90.8 L 150.767 91.5 L 149.367 92.2 Q 148.967 92.5 148.767 92.1 Q 148.567 91.7 148.967 91.4 L 150.367 90.7 L 150.467 90.7 L 151.867 90 L 151.967 90 L 152.967 89.7 L 152.567 89.3 Q 152.367 89.1 152.267 88.9 L 150.767 89.6 L 149.367 90 L 147.767 90.6 Q 147.367 90.8 147.167 90.3 Q 147.067 89.9 147.467 89.8 L 149.067 89.2 L 150.467 88.7 L 151.667 88.2 Q 151.367 87.8 151.067 87.5 L 149.467 87.9 L 147.867 88.4 L 146.267 89 Q 145.867 89.2 145.767 88.8 Q 145.567 88.4 145.967 88.2 L 147.467 87.5 L 147.567 87.5 L 149.267 87 L 150.467 86.7 Q 150.067 86.2 149.767 85.7 L 148.867 86.1 L 147.167 86.6 L 145.667 87.2 Q 145.267 87.4 145.067 87 Q 144.967 86.6 145.367 86.4 L 146.767 85.7 L 146.867 85.7 L 148.567 85.3 L 149.367 84.9 L 148.767 83.7 L 147.967 83.9 L 146.367 84.6 L 144.867 85.2 Q 144.367 85.4 144.267 85 Q 144.067 84.6 144.467 84.4 L 146.067 83.7 L 147.667 83.1 L 147.767 83.1 L 148.467 82.8 Q 148.367 82.4 148.267 82.1 L 147.367 82.4 L 145.967 83 L 145.867 83 L 144.167 83.5 Q 143.767 83.7 143.567 83.3 Q 143.467 82.8 143.867 82.7 L 145.567 82.1 L 147.067 81.6 L 148.067 81.2 L 148.067 80.6 L 147.267 80.9 Q 147.267 81 146.967 81 L 146.867 81 L 145.367 81.5 Q 144.867 81.6 144.767 81.2 Q 144.667 80.8 145.067 80.6 L 146.567 80.2 L 148.067 79.5 Q 148.067 79.4 148.267 79.4 Q 148.567 78.6 149.167 77.9 Q 149.667 77.3 150.367 77 Q 151.067 76.7 151.867 76.6 L 151.967 76.5 L 152.167 76.5 Q 153.167 76.4 154.167 76.35 Q 155.167 76.3 156.267 76.3 Q 157.767 76.2 159.667 76.2 Q 159.667 75.8 159.967 75.7 L 161.467 75.3 L 162.367 74.9 Q 162.167 74.9 162.067 74.8 L 161.067 75.1 L 159.267 75.6 L 157.767 76 Q 157.267 76.1 157.167 75.7 L 156.167 76.1 Q 155.767 76.3 155.567 75.8 Q 155.367 75.4 155.767 75.3 L 157.367 74.6 L 158.967 73.8 L 159.067 73.8 L 159.267 73.7 L 158.667 73.5 L 157.467 73.9 L 155.967 74.4 L 154.567 74.9 Q 154.067 75 153.967 74.6 Q 153.867 74.1 154.267 74 L 155.667 73.5 L 157.167 73.1 L 157.667 72.9 Q 157.267 72.7 157.067 72.5 L 155.467 73 L 153.767 73.5 L 152.267 74.1 Q 151.867 74.3 151.767 73.8 Q 151.567 73.4 151.967 73.3 L 153.467 72.7 L 155.267 72.1 L 156.267 71.8 Q 156.167 71.6 156.017 71.5 Q 155.867 71.4 155.667 71.2 L 154.267 72 L 152.667 72.7 L 151.267 73.2 Q 150.767 73.4 150.667 73 Q 150.467 72.5 150.867 72.4 L 152.367 71.8 L 153.867 71.2 L 155.167 70.5 L 154.567 69.5 L 153.967 69.7 L 152.267 70.5 L 150.767 71.2 L 150.767 71.3 L 149.167 71.8 Q 148.767 72 148.667 71.6 Q 148.467 71.1 148.867 71 L 150.367 70.4 L 151.867 69.7 L 153.667 68.9 L 154.067 68.7 Q 153.867 68.3 153.567 67.8 L 152.767 68.1 L 151.067 68.6 L 149.567 69.4 L 147.767 69.9 Q 147.367 70.1 147.267 69.7 Q 147.067 69.2 147.467 69.1 L 149.267 68.5 L 150.767 67.8 L 152.467 67.2 L 153.167 67 Q 152.967 66.5 152.667 66 L 151.367 66.3 L 149.867 66.8 L 148.367 67.4 L 146.867 68 Q 146.467 68.2 146.267 67.8 Q 146.167 67.3 146.567 67.2 L 147.967 66.6 L 149.567 65.9 L 151.167 65.5 L 152.367 65.1 Q 152.167 64.7 151.967 64.1 L 150.567 64.7 L 150.467 64.7 L 148.867 65.1 L 147.367 65.7 L 147.267 65.7 L 145.667 66.2 Q 145.167 66.3 145.067 65.9 Q 144.967 65.4 145.367 65.3 L 147.067 64.9 L 148.567 64.3 L 150.267 63.8 L 151.667 63.3 Q 151.467 62.7 151.267 62.2 L 149.767 62.6 L 148.167 63.3 L 146.467 64 L 144.967 64.6 Q 144.467 64.7 144.367 64.3 Q 144.167 63.9 144.667 63.7 L 146.167 63.1 L 147.767 62.5 L 149.467 61.7 L 149.567 61.7 L 150.967 61.3 Q 150.767 60.8 150.567 60.2 L 149.467 60.6 L 148.067 61.1 L 146.367 61.8 L 144.967 62.5 Q 144.567 62.7 144.367 62.2 Q 144.167 61.8 144.567 61.6 L 146.067 61 L 147.767 60.3 L 149.167 59.7 L 150.367 59.4 Q 150.267 58.8 150.067 58.3 L 148.967 58.9 L 147.267 59.4 L 145.567 60.1 L 143.767 60.9 Q 143.367 61 143.167 60.6 Q 143.067 60.2 143.467 60 L 145.167 59.3 L 145.267 59.3 L 146.967 58.6 L 148.567 58 L 149.867 57.4 Q 149.667 56.8 149.567 56.3 L 148.367 56.6 L 146.967 57.3 L 145.167 57.8 L 143.567 58.3 Q 143.167 58.5 142.967 58.1 Q 142.867 57.6 143.267 57.5 L 144.867 56.9 L 144.967 56.9 L 146.667 56.5 L 148.067 55.8 L 148.167 55.8 L 149.367 55.4 Q 149.267 54.8 149.167 54.3 L 148.267 54.6 L 146.467 55.1 L 145.067 55.5 L 143.367 56 Q 142.967 56.1 142.867 55.7 Q 142.767 55.3 143.167 55.1 L 144.767 54.7 L 146.267 54.2 L 147.967 53.7 L 149.067 53.4 Q 149.067 52.8 148.967 52.3 L 148.267 52.5 L 146.467 53.3 L 144.667 53.9 L 143.167 54.3 Q 142.767 54.5 142.567 54 Q 142.467 53.6 142.867 53.5 L 144.467 53 L 146.167 52.5 L 147.867 51.7 L 148.967 51.3 Q 148.967 50.5 148.867 49.8 L 148.267 50.2 L 146.767 50.8 L 145.167 51.3 L 143.767 52 Q 143.367 52.3 143.167 51.9 Q 142.867 51.5 143.267 51.3 L 144.767 50.5 L 144.867 50.5 L 144.867 50.4 L 146.467 50 L 147.867 49.4 L 148.867 48.8 L 148.867 47.2 L 148.367 47.4 L 146.767 48.1 L 145.267 48.9 L 143.767 49.6 Q 143.367 49.8 143.167 49.4 Q 142.967 49 143.367 48.8 L 144.867 48.1 L 146.367 47.3 L 146.467 47.3 L 147.967 46.6 L 148.867 46.3 Q 148.867 45.6 148.967 44.9 L 148.267 45.2 L 146.467 46 L 144.667 46.8 L 143.167 47.3 Q 142.767 47.5 142.567 47.1 Q 142.467 46.6 142.867 46.5 L 144.367 45.9 L 146.067 45.2 L 147.867 44.4 L 148.967 43.9 Q 149.067 43.4 149.167 42.8 L 148.467 43.1 L 146.767 43.8 L 145.267 44.3 L 143.567 44.9 Q 143.167 45 143.067 44.6 Q 142.867 44.2 143.367 44 L 144.967 43.5 L 146.467 42.9 L 148.167 42.3 L 149.467 41.8 Q 149.567 41.2 149.767 40.7 L 148.867 41 L 147.367 41.4 L 145.767 42.1 L 144.067 42.7 Q 143.667 42.8 143.467 42.4 Q 143.367 42 143.767 41.8 L 145.467 41.3 L 147.067 40.6 L 148.567 40.1 L 150.167 39.6 Q 150.267 39.1 150.467 38.6 L 149.667 39 L 148.167 39.4 L 146.667 39.9 L 145.067 40.6 Q 144.667 40.7 144.467 40.3 Q 144.367 39.9 144.767 39.7 L 146.267 39.1 L 146.367 39.1 L 146.367 39 L 147.867 38.6 L 149.367 38.1 L 150.767 37.6 L 150.867 37.5 L 151.267 36.7 L 150.267 37.2 L 148.667 37.7 L 147.167 38.3 L 145.667 39 Q 145.267 39.2 145.067 38.8 Q 144.867 38.4 145.267 38.2 L 146.867 37.5 L 148.267 36.9 L 148.267 36.8 L 148.367 36.8 L 149.967 36.4 L 151.367 35.6 Q 151.567 35.5 151.767 35.6 Q 151.967 35.2 152.167 34.7 L 151.067 35.1 L 149.367 35.8 L 147.867 36.5 L 146.267 37.2 Q 145.767 37.4 145.667 37 Q 145.467 36.5 145.867 36.4 L 147.467 35.7 L 148.967 35 L 148.967 34.9 L 150.767 34.3 L 152.167 33.7 Q 152.467 33.6 152.567 33.7 Q 152.867 33.3 153.067 32.9 L 151.767 33.3 L 150.067 33.9 L 148.367 34.4 L 146.767 35 Q 146.367 35.1 146.167 34.7 Q 146.067 34.3 146.467 34.1 L 148.067 33.6 L 149.767 33 L 151.467 32.4 Z M 236.767 77.3 L 235.067 78.1 L 233.667 78.8 L 231.867 79.5 Q 231.467 79.7 231.267 79.3 Q 231.067 78.9 231.567 78.7 L 233.067 78 L 231.667 78.6 L 231.567 78.6 L 229.967 79 Q 229.567 79.2 229.367 78.8 L 227.967 79.2 Q 227.567 79.4 227.367 79 L 227.367 78.9 L 226.067 79.6 Q 225.667 79.8 225.467 79.4 Q 225.267 79 225.667 78.8 L 227.167 78.1 L 227.267 78 L 228.967 77.6 L 229.767 77.2 L 229.467 77.2 L 228.867 77.3 L 227.167 78 L 225.467 78.7 L 223.967 79.3 Q 223.467 79.5 223.367 79.1 L 223.267 79 L 221.967 79.6 Q 221.567 79.8 221.367 79.4 Q 221.167 79 221.567 78.8 L 223.367 78 L 221.867 78.5 L 220.367 79 Q 219.867 79.2 219.767 78.8 Q 219.667 78.6 219.467 78.6 L 217.867 79 Q 217.367 79.2 217.267 78.7 L 217.267 78.6 L 216.167 79.1 Q 215.967 79.2 215.767 79.1 L 214.567 79.6 Q 214.167 79.8 213.967 79.4 Q 213.867 79.2 214.067 79 Q 213.967 78.9 213.867 78.7 Q 213.767 78.3 214.167 78.2 L 215.767 77.7 L 217.167 77.2 L 218.267 76.2 L 216.767 76.7 L 216.767 76.8 L 215.267 77.2 L 213.467 78 L 211.767 78.5 Q 211.267 78.7 211.167 78.3 Q 211.067 77.8 211.467 77.7 L 213.167 77.1 L 214.867 76.4 L 214.967 76.4 L 216.467 75.9 L 217.467 75.5 L 217.267 75.3 Q 217.067 75 217.067 74.9 L 216.867 74.5 L 216.367 74.7 L 214.567 75.4 L 213.067 76.2 L 211.467 76.9 Q 211.067 77.1 210.867 76.7 Q 210.667 76.3 211.067 76.1 L 212.667 75.4 L 214.167 74.6 L 214.267 74.6 L 215.967 73.9 L 216.567 73.7 Q 216.367 73.2 216.167 73 L 216.067 73 L 214.567 73.5 L 213.167 73.9 L 211.567 74.7 Q 211.167 74.9 210.967 74.5 Q 210.767 74.1 211.167 73.9 L 212.767 73.1 L 212.867 73.1 L 214.267 72.6 L 216.167 72 L 216.167 71.35 Q 216.167 71 215.967 70.8 L 214.567 71.3 L 213.167 72 L 211.567 72.6 Q 211.167 72.8 210.967 72.4 Q 210.767 72 211.267 71.8 L 212.767 71.2 L 214.167 70.5 L 214.267 70.5 L 215.667 69.9 L 215.767 69.9 L 216.267 69.8 Q 216.367 69.2 216.067 68.9 L 214.467 69.4 L 213.067 70.1 L 211.267 70.9 Q 210.867 71.1 210.667 70.7 Q 210.467 70.3 210.967 70.1 L 212.667 69.3 L 214.067 68.6 L 214.167 68.5 L 216.267 67.9 L 216.267 66.9 L 214.567 67.3 L 213.167 68.1 L 213.067 68.1 L 211.467 68.7 Q 211.067 68.8 210.867 68.4 Q 210.767 68 211.167 67.8 L 212.767 67.3 L 214.167 66.5 L 214.267 66.5 L 216.167 66 Q 216.167 65.3 216.067 64.9 L 214.467 65.7 L 213.067 66.4 L 211.567 67 Q 211.167 67.2 210.967 66.8 Q 210.767 66.4 211.167 66.2 L 212.667 65.5 L 214.067 64.9 L 215.667 64.1 Q 215.767 64.1 216.067 64 L 216.067 63.6 L 216.067 63.3 L 214.467 64 L 213.067 64.4 L 211.567 65.1 Q 211.167 65.3 210.967 64.9 Q 210.767 64.4 211.167 64.3 L 212.667 63.6 L 212.767 63.6 L 214.167 63.1 L 215.967 62.3 L 215.967 61.5 L 214.767 62.1 L 213.267 62.6 L 211.667 63.3 Q 211.267 63.5 211.067 63.1 Q 210.867 62.7 211.267 62.5 L 212.867 61.8 L 212.867 61.7 L 212.967 61.7 L 214.467 61.3 L 215.967 60.5 L 215.967 59.2 L 214.567 59.8 L 213.167 60.5 L 211.567 61.3 Q 211.167 61.5 210.967 61.1 Q 210.767 60.7 211.167 60.5 L 212.767 59.7 L 214.167 59 L 214.267 59 L 214.267 58.9 L 215.667 58.4 Q 215.767 58.4 215.967 58.3 L 215.967 57.5 L 214.567 58.2 L 212.867 58.9 L 212.767 58.9 L 211.267 59.4 Q 210.867 59.5 210.667 59.1 Q 210.567 58.6 210.967 58.5 L 212.567 58 L 214.267 57.4 L 215.667 56.7 L 215.667 56.6 L 215.967 56.5 L 215.967 56.3 L 215.967 56.1 Q 216.067 55.6 216.067 55.3 L 214.667 56 L 213.267 56.7 L 211.767 57.5 Q 211.367 57.7 211.167 57.3 Q 210.967 56.9 211.367 56.7 L 212.867 55.9 L 214.267 55.2 L 215.867 54.4 Q 215.967 54.4 216.067 54.3 L 216.067 53.6 L 214.867 54.2 L 214.867 54.3 L 213.167 54.7 L 211.767 55.3 Q 211.367 55.4 211.167 55 Q 211.067 54.6 211.467 54.4 L 212.867 53.9 L 212.967 53.9 L 214.567 53.4 L 215.967 52.7 L 216.067 52.6 L 216.067 52.5 L 216.067 51.4 L 214.567 52 L 212.867 52.8 L 212.767 52.8 L 211.167 53.2 Q 210.667 53.4 210.567 52.9 Q 210.467 52.5 210.867 52.4 L 212.467 51.9 L 214.267 51.2 L 216.067 50.5 Q 216.067 50 215.967 49.4 L 214.367 50.2 L 212.867 50.7 L 211.067 51.4 Q 210.667 51.6 210.467 51.1 Q 210.367 50.7 210.767 50.6 L 212.467 49.9 L 214.067 49.3 L 215.667 48.6 Q 215.767 48.5 215.967 48.5 L 215.967 48.1 L 215.967 47.9 L 215.967 47.7 L 214.767 48.2 L 213.167 48.9 L 211.667 49.5 Q 211.267 49.7 211.067 49.3 Q 210.867 48.9 211.267 48.7 L 212.767 48.1 L 214.467 47.4 L 215.867 46.8 L 215.867 45.7 L 214.767 46.1 L 213.367 46.7 L 211.767 47.3 Q 211.367 47.5 211.167 47 Q 211.067 46.6 211.467 46.5 L 212.967 45.9 L 214.367 45.3 L 214.467 45.2 L 215.867 44.7 Q 215.867 44.4 215.767 44 L 214.767 44.4 L 213.067 45.2 L 211.467 46 Q 211.067 46.2 210.867 45.8 Q 210.667 45.4 211.067 45.2 L 212.667 44.4 L 214.467 43.6 L 215.767 43 Q 215.767 42.4 215.867 41.8 L 214.767 42.3 L 212.967 42.8 L 211.367 43.3 Q 210.967 43.5 210.767 43.1 Q 210.667 42.6 211.067 42.5 L 212.767 41.9 L 214.467 41.5 L 215.867 40.8 L 215.867 39.8 L 214.467 40.5 L 212.667 41 L 211.167 41.6 Q 210.767 41.7 210.567 41.3 Q 210.467 40.9 210.867 40.7 L 212.467 40.2 L 214.167 39.6 L 215.767 38.9 L 215.867 38.8 Q 215.867 38.4 215.967 38.1 L 214.567 38.7 L 212.967 39.3 L 211.267 39.9 Q 210.867 40 210.667 39.6 Q 210.567 39.1 210.967 39 L 212.767 38.4 L 214.267 37.9 L 215.767 37.1 L 215.967 37 L 215.967 36.1 L 214.567 36.8 L 212.867 37.4 L 212.767 37.4 L 211.167 37.9 Q 210.667 38 210.567 37.6 Q 210.467 37.2 210.867 37 L 212.567 36.6 L 214.267 35.9 L 216.067 35.1 L 216.067 34.2 L 214.367 34.9 L 212.967 35.5 L 212.867 35.5 L 211.167 36 Q 210.667 36.1 210.567 35.7 Q 210.467 35.2 210.867 35.1 L 212.667 34.6 L 214.067 34.1 L 216.067 33.2 L 216.067 32.1 L 214.567 32.7 L 212.967 33.3 L 211.167 34 Q 210.767 34.2 210.567 33.8 Q 210.367 33.4 210.867 33.2 L 212.567 32.4 L 212.667 32.4 L 214.267 31.8 L 216.167 31.1 L 216.167 30.2 L 216.167 30 L 214.767 30.5 L 213.267 31.1 L 211.567 31.7 Q 211.167 31.8 210.967 31.4 Q 210.867 31 211.267 30.8 L 212.967 30.3 L 214.467 29.7 L 215.867 29.1 L 215.967 29.1 L 216.167 29.1 Q 216.167 28.3 215.967 28.1 L 214.567 28.5 L 212.967 29.1 L 211.367 29.7 Q 210.967 29.9 210.767 29.5 Q 210.567 29.1 211.067 28.9 L 212.567 28.2 L 212.667 28.2 L 214.267 27.7 L 215.767 27.2 L 216.367 27 Q 216.467 26.7 216.667 26.4 L 215.367 26.8 L 213.867 27.2 Q 213.867 27.3 213.767 27.3 L 212.067 27.8 Q 211.667 28 211.467 27.5 Q 211.367 27.1 211.767 27 L 213.567 26.4 L 214.967 25.9 L 216.767 25.4 L 217.667 25 Q 218.567 24.2 219.717 24.05 Q 220.867 23.9 222.067 24 L 222.567 24 L 223.567 24 L 224.467 24 Q 227.467 24.1 230.417 23.95 Q 233.367 23.8 236.367 23.5 L 236.767 23.5 Q 238.067 23.4 239.267 23.45 Q 240.467 23.5 241.467 24.5 Q 242.467 25.5 242.567 26.65 Q 242.667 27.8 242.567 29 L 242.567 29.5 Q 242.467 31.3 242.367 33.15 Q 242.267 35 242.367 36.9 Q 242.567 40.8 242.717 44.75 Q 242.867 48.7 242.867 52.5 Q 242.867 55.8 242.667 59.05 Q 242.467 62.3 242.467 65.6 L 242.467 67 L 242.467 68.4 L 242.467 69.8 L 242.467 71.2 L 242.467 71.6 Q 242.467 72.8 242.317 74 Q 242.167 75.2 241.067 76.1 Q 240.167 77 239.067 77.15 Q 237.967 77.3 236.767 77.3 Z M 10.067 7 L 9.167 7.3 L 9.067 7.4 Q 8.767 7.6 8.667 8.05 Q 8.567 8.5 8.467 8.8 L 8.467 9.9 Q 8.567 10.3 8.567 10.5 L 8.567 12.45 L 8.567 14.3 Q 8.667 16.8 8.617 19.25 Q 8.567 21.7 8.567 24.2 Q 8.467 25.1 8.417 26.1 Q 8.367 27.1 8.267 28.1 L 8.067 31.3 L 7.867 34.5 L 7.867 34.8 Q 7.767 35.5 7.767 36.3 Q 7.867 36.3 7.867 36.4 Q 7.967 36.7 7.767 36.9 Q 7.767 37.6 7.667 38.2 Q 7.767 38.3 7.867 38.3 Q 7.967 38.7 7.667 38.9 L 7.667 40.1 Q 7.767 40.2 7.767 40.3 Q 7.967 40.6 7.667 40.8 L 7.667 42.1 L 7.867 42.3 Q 7.967 42.6 7.667 42.8 Q 7.767 43.4 7.767 44.1 L 7.867 44.2 Q 7.967 44.5 7.767 44.7 L 7.767 46.1 L 7.867 46.2 L 7.867 46.6 Q 8.067 52.6 8.867 58.2 L 8.867 58.3 Q 9.167 63 8.967 67.9 Q 8.867 69.8 8.667 72 Q 8.667 72.2 8.567 72.6 Q 8.467 72.9 8.417 73.25 Q 8.367 73.6 8.467 73.9 Q 8.467 74.2 8.617 74.6 Q 8.767 75 8.867 75.3 L 10.167 76 Q 10.367 76 10.467 76.2 Q 10.767 76.1 11.117 76.1 Q 11.467 76.1 11.867 76 Q 12.167 75.9 12.367 76.1 L 13.867 76.1 Q 14.067 76 14.267 76.1 L 14.967 76.1 Q 15.367 76.1 15.867 76 Q 16.067 76 16.267 76.1 L 17.167 76.1 L 17.767 76.1 Q 17.967 75.9 18.167 76.1 L 18.917 76.1 Q 19.267 76.1 19.767 76 Q 20.067 75.9 20.167 76.1 L 20.917 76.1 L 21.667 76.1 Q 21.867 75.9 22.167 76.1 Q 22.967 76.1 23.667 76 L 23.867 76 Q 24.767 76 25.567 75.9 Q 26.067 75.9 26.517 75.85 Q 26.967 75.8 27.467 75.8 Q 27.667 75.7 28.167 75.7 Q 28.867 75.7 29.617 75.6 Q 30.367 75.5 30.967 75 Q 31.667 74.3 31.717 73.1 Q 31.767 71.9 31.767 70.8 Q 31.667 70.1 31.667 69.8 L 31.667 67.7 Q 31.667 66.7 31.567 65.7 Q 31.567 64.8 31.517 63.9 Q 31.467 63 31.467 62.1 Q 31.467 60.5 31.567 59 Q 31.667 57.5 31.667 56 Q 31.667 55.7 31.717 55.45 Q 31.767 55.2 31.767 55 Q 31.667 54.9 31.667 54.8 Q 31.567 54.6 31.667 54.4 Q 31.467 54.3 31.467 54.1 Q 31.267 53.7 31.767 53.5 L 31.767 53.1 Q 31.667 52.7 31.667 52.25 Q 31.667 51.8 32.067 51.4 Q 32.167 51.4 32.367 51.3 Q 32.567 51.1 32.667 51.1 L 34.467 51.1 L 36.267 51.1 Q 38.467 51 40.667 51 L 44.967 51 Q 45.867 51 46.767 51.05 Q 47.667 51.1 48.567 51.1 L 48.867 51.2 Q 49.067 51.3 49.167 51.4 Q 49.467 51.8 49.467 52.25 Q 49.467 52.7 49.367 53.1 Q 49.267 53.7 49.267 53.9 L 49.267 56 Q 49.267 57.3 49.317 58.6 Q 49.367 59.9 49.467 61.2 Q 49.667 63.9 49.717 66.65 Q 49.767 69.4 49.467 72 Q 49.467 72.2 49.367 72.7 Q 49.267 73.4 49.267 74.1 Q 49.267 74.8 49.667 75.3 Q 49.767 75.3 49.767 75.4 Q 50.067 75.6 50.417 75.75 Q 50.767 75.9 51.067 75.9 Q 51.367 76 52.167 76 L 52.667 76 L 56.367 76 Q 58.867 75.9 61.317 75.8 Q 63.767 75.7 66.167 75.6 L 68.167 75.6 Q 68.467 75.6 68.967 75.7 Q 69.667 75.7 70.367 75.65 Q 71.067 75.6 71.567 75.2 Q 72.067 74.7 72.117 74 Q 72.167 73.3 72.167 72.6 L 72.167 71.9 Q 72.167 70 72.217 68.05 Q 72.267 66.1 72.367 64.1 Q 72.467 62.7 72.467 61.25 Q 72.467 59.8 72.367 58.3 L 72.367 55.25 Q 72.367 53.7 72.467 52.2 Q 72.567 49.8 72.817 47.45 Q 73.067 45.1 73.267 42.7 Q 73.567 40.1 73.567 37.55 Q 73.567 35 73.667 32.5 Q 73.867 29.9 73.817 27.25 Q 73.767 24.6 73.767 21.9 Q 73.667 19.9 73.667 17.9 L 73.667 13.9 Q 73.667 13.6 73.767 12.8 Q 73.867 11.7 73.817 10.5 Q 73.767 9.3 73.067 8.7 Q 72.467 8.2 71.617 8.1 Q 70.767 8 69.967 8.1 L 69.267 8.1 L 67.117 8.1 L 64.967 8.1 Q 61.967 8 58.867 7.95 Q 55.767 7.9 52.767 7.8 L 52.167 7.8 Q 51.567 7.7 50.917 7.7 Q 50.267 7.7 49.867 8.199 Q 49.467 8.7 49.467 9.35 Q 49.467 10 49.567 10.7 Q 49.667 11.1 49.667 11.3 Q 49.667 11.8 49.717 12.25 Q 49.767 12.7 49.867 13.2 Q 50.167 15.9 49.967 18.75 Q 49.767 21.6 49.467 24.4 Q 49.467 25.3 49.367 26.2 Q 49.267 27.1 49.167 28.1 Q 49.067 28.3 49.167 28.8 Q 49.167 29.3 49.117 29.7 Q 49.067 30.1 48.667 30.5 Q 48.167 30.8 47.767 30.8 Q 47.367 30.8 46.867 30.7 Q 46.367 30.6 46.067 30.6 Q 45.167 30.6 44.167 30.7 L 43.867 30.7 Q 43.667 30.7 43.267 30.9 Q 42.867 31 42.667 30.7 Q 40.867 30.8 39.017 30.95 Q 37.167 31.1 35.267 31.2 Q 34.367 31.2 33.517 31.25 Q 32.667 31.3 31.767 31.3 Q 31.667 31.3 31.467 31.2 Q 31.167 31.1 31.167 31 Q 30.767 30.6 30.767 30.2 L 30.767 29.4 Q 30.867 28.9 30.867 28.6 L 30.867 28.2 L 30.867 26.55 L 30.867 24.9 Q 30.967 23.1 31.117 21.25 Q 31.267 19.4 31.267 17.6 L 31.267 16 L 31.267 14.4 L 31.267 13.05 L 31.267 11.7 L 31.267 10.9 Q 31.367 10.2 31.317 9.45 Q 31.267 8.7 30.867 8.1 Q 30.267 7.5 29.217 7.45 Q 28.167 7.4 27.167 7.4 Q 26.467 7.5 26.167 7.5 Q 22.667 7.5 19.217 7.4 Q 15.767 7.3 12.267 7 L 11.667 7 Q 11.267 7 10.867 6.95 Q 10.467 6.9 10.067 7 Z M 169.567 74 L 170.667 73.7 Q 171.167 73.6 171.267 74 L 171.267 74.1 L 172.767 73.7 Q 173.167 73.5 173.267 74 L 174.667 73.5 Q 174.967 73.4 175.167 73.5 L 176.767 73.1 Q 176.867 73 177.167 73.1 L 178.667 72.5 Q 179.067 72.3 179.167 72.8 L 179.267 72.8 Q 180.767 72.2 182.067 71.3 Q 182.267 71.2 182.567 70.8 L 182.567 70.6 Q 182.567 70.5 182.767 70.6 Q 183.067 70.2 183.367 70 Q 183.667 69.8 184.267 69.9 Q 184.467 69.9 184.767 70.2 Q 184.967 70.5 184.967 70.7 Q 184.967 71.5 184.917 72.3 Q 184.867 73.1 184.867 73.9 Q 184.767 75.2 184.767 76.5 Q 184.767 77.8 184.467 79.1 Q 184.167 80.3 183.617 81.3 Q 183.067 82.3 181.967 82.8 Q 180.867 83.4 179.467 83.3 Q 178.767 83.3 178.017 83.15 Q 177.267 83 176.667 82.6 L 176.567 82.6 L 176.467 82.5 Q 175.467 81.5 174.317 80.6 Q 173.167 79.7 172.167 78.6 Q 171.867 78.6 171.167 78.7 Q 170.767 78.8 170.667 78.8 L 169.567 78.8 L 168.567 78.8 Q 167.467 78.8 166.417 78.75 Q 165.367 78.7 164.267 78.7 Q 162.267 78.6 160.317 78.6 Q 158.367 78.6 156.367 78.7 Q 155.367 78.7 154.367 78.75 Q 153.367 78.8 152.367 78.9 Q 151.967 79 151.867 79 L 151.067 79.4 L 150.967 79.5 Q 150.667 79.8 150.567 80.1 Q 150.867 80.1 150.967 80.4 Q 151.167 80.8 150.467 81.1 Q 150.567 81.8 150.967 82.1 Q 151.367 82 151.467 82.4 Q 151.567 82.9 151.067 83 Q 151.367 83.7 151.667 84 Q 152.167 83.9 152.267 84.3 Q 152.367 84.7 152.067 84.8 Q 152.367 85.3 152.767 85.8 Q 153.067 85.7 153.267 86.1 Q 153.367 86.3 153.267 86.4 Q 153.667 86.9 154.167 87.5 Q 154.367 87.5 154.467 87.8 L 154.467 87.9 L 155.667 89.1 L 155.767 89.2 Q 157.167 90.6 158.467 91.7 Q 158.767 91.8 158.867 92.1 L 160.067 92.9 Q 160.367 92.8 160.567 93.2 L 160.567 93.3 Q 161.267 93.8 161.667 94 Q 162.067 93.8 162.267 94.2 Q 162.367 94.3 162.367 94.4 Q 162.467 94.5 162.367 94.5 L 162.467 94.5 Q 162.667 94.7 162.867 94.8 Q 163.067 94.9 163.567 94.9 Q 163.967 94.7 164.167 95.1 Q 164.267 95.4 164.167 95.6 Q 164.467 95.8 164.867 95.9 L 165.467 95.7 Q 165.867 95.5 166.067 95.9 Q 166.167 96.2 166.067 96.4 L 166.867 96.6 L 167.367 96.3 Q 167.767 96.1 167.967 96.5 Q 168.067 96.7 168.067 96.9 L 168.867 97.1 L 169.467 96.9 Q 169.867 96.7 170.067 97.1 L 170.067 97.3 Q 170.267 97.4 170.567 97.4 Q 170.867 97.4 171.367 97.3 Q 171.867 97.1 171.967 97.5 L 172.067 97.6 Q 172.367 97.7 172.667 97.7 Q 172.967 97.7 173.467 97.6 Q 173.867 97.4 174.067 97.8 Q 174.367 97.9 174.717 97.9 Q 175.067 97.9 175.567 97.8 Q 175.867 97.7 176.067 98 L 177.567 98 Q 177.767 97.9 177.967 98 L 180.967 97.8 Q 183.767 97.6 186.867 97.3 Q 189.967 97 192.567 96 L 192.667 96 Q 194.467 95.4 196.267 94.6 Q 198.067 93.8 199.667 92.7 Q 201.267 91.6 202.567 90.2 Q 204.567 88.2 205.617 85.15 Q 206.667 82.1 207.067 79.4 Q 207.267 77.6 207.267 75.8 Q 207.267 74 207.167 72.2 Q 207.167 71.8 207.117 71.35 Q 207.067 70.9 207.067 70.5 Q 206.667 65.4 206.617 60.05 Q 206.567 54.7 206.967 49.6 Q 207.067 47.9 207.067 46.15 L 207.067 42.6 Q 206.967 40 207.017 37.35 Q 207.067 34.7 207.467 32.1 Q 207.467 31.8 207.517 31.5 Q 207.567 31.2 207.667 30.8 Q 207.767 30.2 207.817 29.6 Q 207.867 29 207.867 28.3 Q 207.767 28 207.717 27.55 Q 207.667 27.1 207.367 26.8 Q 206.967 26.3 206.267 26.25 Q 205.567 26.2 204.867 26.2 L 204.267 26.2 L 202.267 26 Q 199.467 25.8 196.617 25.55 Q 193.767 25.3 190.867 25 Q 190.667 25 190.367 24.9 Q 189.667 24.8 188.917 24.8 Q 188.167 24.8 187.667 25.3 Q 187.267 25.7 187.167 26.35 Q 187.067 27 187.067 27.6 L 187.067 28.1 Q 187.067 28.3 187.167 28.8 Q 187.267 29.4 187.167 29.9 Q 187.067 30.4 186.167 30.4 Q 185.567 30.4 185.217 30.1 Q 184.867 29.8 184.367 29.5 Q 183.967 29.7 183.767 29.3 Q 183.567 28.9 184.167 28.6 Q 184.067 28.5 183.567 28.6 Q 183.167 28.8 182.967 28.4 Q 182.767 28 183.167 27.8 Q 183.067 27.6 182.967 27.5 L 181.967 28 Q 181.567 28.2 181.367 27.8 Q 181.167 27.4 181.867 27.1 Q 181.467 27.1 181.367 26.7 L 181.367 26.5 Q 181.167 26.3 180.967 26.2 L 180.867 26.2 L 180.767 26.1 Q 179.367 24.9 176.667 24.25 Q 173.967 23.6 171.117 23.5 Q 168.267 23.4 166.467 23.7 L 166.367 23.7 Q 164.567 23.9 163.067 24.4 L 163.167 24.5 Q 163.267 25 162.867 25.1 L 161.067 25.8 Q 161.067 25.9 160.867 25.9 L 159.967 26.3 Q 158.267 28.4 156.417 31.9 Q 154.567 35.4 153.117 38.8 Q 151.667 42.2 151.367 44.2 Q 151.267 45.4 151.267 46.65 L 151.267 49.1 Q 151.267 50.3 151.367 51.4 Q 151.467 52.5 151.567 53.7 Q 151.967 56 152.867 59.25 Q 153.767 62.5 155.117 65.55 Q 156.467 68.6 158.167 70.3 Q 159.067 71.2 161.367 72.05 Q 163.667 72.9 166.267 73.4 Q 166.567 73.4 166.667 73.5 Q 167.067 73.6 167.417 73.65 Q 167.767 73.7 168.267 73.7 Q 168.667 73.5 168.867 73.9 Q 169.267 74 169.567 74 Z M 101.767 76.8 L 102.567 77 L 103.467 77 L 104.467 77 Q 104.667 76.9 104.767 77 Q 105.067 77 105.467 76.95 Q 105.867 76.9 106.467 76.8 Q 106.767 76.7 106.967 76.9 L 107.167 76.9 L 107.267 76.8 L 108.467 76.5 Q 108.567 76.4 108.867 76.4 L 110.567 75.9 Q 110.767 75.8 110.967 76 L 112.467 75.2 Q 112.867 75 113.067 75.4 L 113.067 75.5 L 114.067 75.2 L 114.167 75.1 L 114.267 75.1 Q 115.767 74.3 116.667 73.4 Q 116.267 73.6 116.067 73.3 Q 115.867 72.9 116.267 72.6 L 116.767 72.3 L 116.867 72.3 L 117.567 72.1 L 117.667 72.1 L 117.667 72 L 117.767 72 Q 117.967 71.6 118.267 71.25 Q 118.567 70.9 119.167 70.9 Q 120.167 70.8 120.217 71.4 Q 120.267 72 120.167 72.6 Q 119.967 73.1 119.967 73.3 L 119.967 73.8 L 119.967 74.55 L 119.967 75.2 Q 120.167 75.3 120.267 75.5 Q 120.367 75.7 120.267 75.9 Q 120.367 76 120.467 76.2 Q 120.567 76.3 120.767 76.4 L 121.667 76 Q 122.067 75.9 122.267 76.3 L 122.267 76.6 L 123.567 76 Q 123.967 75.9 124.167 76.3 L 124.167 76.5 L 125.567 76 Q 125.967 75.9 126.167 76.3 L 126.167 76.7 L 127.467 76.1 Q 127.867 75.9 128.067 76.3 L 128.067 76.4 L 129.467 76 Q 129.867 75.9 130.067 76.3 L 130.067 76.4 L 131.467 76 Q 131.867 75.9 131.967 76.3 Q 132.067 76.6 131.867 76.7 L 133.267 76.1 Q 133.667 75.9 133.867 76.3 Q 133.967 76.4 133.867 76.6 L 135.267 76 Q 135.667 75.9 135.867 76.3 L 135.867 76.5 L 137.267 76 Q 137.667 75.9 137.767 76.3 Q 137.867 76.4 137.867 76.5 L 139.167 76 Q 139.567 75.9 139.767 76.3 L 139.767 76.5 Q 140.267 76.3 140.567 76 Q 141.167 75.4 141.217 74.6 Q 141.267 73.8 141.267 73 Q 141.167 72.5 141.167 72.3 L 141.167 70.9 L 141.167 69.5 L 141.167 67.65 L 141.167 65.8 Q 141.367 54.9 141.167 43.7 L 141.167 42.55 L 141.167 41.4 Q 141.167 39.6 141.117 37.75 Q 141.067 35.9 140.767 34.3 L 140.767 34.2 L 140.667 34.2 Q 140.667 32.8 140.567 31.35 Q 140.467 29.9 140.467 28.5 L 140.467 27.9 Q 140.467 27.2 140.417 26.5 Q 140.367 25.8 139.967 25.4 Q 139.467 24.9 138.717 24.9 L 137.267 24.9 Q 136.867 25 136.667 25 Q 135.167 25 133.717 25.1 Q 132.267 25.2 130.767 25.2 Q 128.467 25.3 126.167 25.3 Q 123.867 25.3 121.567 25.4 L 120.967 25.4 Q 120.367 25.4 119.717 25.45 Q 119.067 25.5 118.667 26 Q 118.167 26.5 118.167 27.3 Q 118.167 28.1 118.267 28.8 Q 118.267 29.2 118.367 29.5 Q 118.367 30 118.417 30.5 Q 118.467 31 118.467 31.5 Q 119.167 36.2 119.317 41.25 Q 119.467 46.3 119.467 51.1 Q 119.467 52.7 119.317 54.65 Q 119.167 56.6 118.467 58.25 Q 117.767 59.9 116.067 60.7 L 115.967 60.7 Q 114.967 61.1 113.467 61.1 Q 111.567 61.2 110.017 60.2 Q 108.467 59.2 107.867 57.3 Q 107.667 56.7 107.567 56.15 Q 107.467 55.6 107.467 55 Q 107.267 53.1 107.267 51.15 Q 107.267 49.2 107.167 47.3 Q 106.867 43.6 106.817 39.95 Q 106.767 36.3 106.767 32.6 Q 106.767 31.6 106.817 30.55 Q 106.867 29.5 106.867 28.4 L 106.867 27.8 Q 106.967 27.5 106.967 27.2 Q 106.967 26.9 106.867 26.6 Q 106.867 26.2 106.767 25.8 Q 106.667 25.4 106.367 25.1 Q 106.067 24.8 105.617 24.7 Q 105.167 24.6 104.867 24.5 Q 104.467 24.4 103.667 24.5 Q 103.267 24.6 103.067 24.6 L 99.167 24.6 L 94.167 24.8 Q 91.667 24.9 89.167 24.8 Q 88.767 24.8 88.417 24.75 Q 88.067 24.7 87.767 24.7 Q 87.367 24.7 87.017 24.65 Q 86.667 24.6 86.267 24.6 Q 86.167 24.8 85.967 24.9 L 84.267 25.4 Q 84.267 25.6 84.067 25.7 L 82.967 26.1 Q 82.867 26.5 82.967 26.7 Q 83.367 26.6 83.567 27 Q 83.667 27.4 82.867 27.7 L 82.867 27.9 L 82.867 28.5 Q 82.867 28.7 82.967 28.7 Q 83.467 28.6 83.567 29 Q 83.667 29.4 82.967 29.7 L 82.967 30.7 Q 83.467 30.5 83.567 31 Q 83.667 31.4 82.967 31.6 L 82.967 32 L 82.967 32.3 L 82.967 32.6 Q 83.367 32.5 83.467 32.9 Q 83.667 33.3 82.967 33.6 Q 82.967 34.1 83.067 34.6 Q 83.367 34.5 83.467 34.9 Q 83.667 35.3 83.067 35.6 L 83.067 36.6 Q 83.367 36.5 83.467 36.8 Q 83.667 37.2 83.067 37.6 L 83.067 38.5 Q 83.367 38.5 83.467 38.8 Q 83.667 39.2 82.967 39.5 L 82.967 40.5 Q 83.367 40.4 83.467 40.8 Q 83.667 41.2 82.967 41.5 L 82.967 42.5 Q 83.367 42.4 83.567 42.8 Q 83.667 43.2 82.967 43.5 Q 82.867 44.2 82.967 44.5 Q 83.367 44.3 83.567 44.7 Q 83.667 45.2 82.867 45.5 Q 82.867 46.1 82.967 46.5 Q 83.367 46.3 83.567 46.7 Q 83.667 47.1 82.867 47.4 Q 82.867 48.1 82.967 48.4 Q 83.467 48.3 83.567 48.7 Q 83.667 49.1 82.967 49.4 L 82.967 50.4 Q 83.467 50.3 83.567 50.7 Q 83.667 51.1 82.967 51.3 L 82.967 51.85 L 82.967 52.4 Q 83.367 52.2 83.567 52.6 Q 83.667 53 83.067 53.3 L 83.067 54.3 Q 83.367 54.3 83.567 54.6 Q 83.667 55 83.167 55.2 L 83.167 56.4 Q 83.467 56.4 83.567 56.7 Q 83.767 57.1 83.267 57.3 L 83.467 58.5 Q 83.667 58.6 83.767 58.7 Q 83.867 59 83.667 59.2 Q 84.767 62.3 86.367 65.7 Q 87.967 69.1 90.267 71.4 Q 92.567 73.6 95.467 75 Q 96.967 75.7 98.567 76.1 Q 100.167 76.5 101.767 76.8 Z M 312.067 93.1 L 313.567 94.4 Q 316.667 94.3 319.917 94.35 Q 323.167 94.4 326.267 94.6 Q 326.667 94.6 327.467 94.7 Q 328.567 94.8 329.667 94.8 Q 330.767 94.8 331.567 94.3 Q 332.367 93.8 332.717 92.85 Q 333.067 91.9 333.467 91.1 Q 334.367 88.8 335.367 86.55 Q 336.367 84.3 337.267 82 Q 338.167 79.8 339.017 77.55 Q 339.867 75.3 340.767 73.2 Q 341.667 71.4 342.517 69.6 Q 343.367 67.8 344.167 66 Q 344.967 64.1 345.667 62.15 Q 346.367 60.2 347.167 58.3 Q 348.167 55.9 349.267 53.6 Q 350.367 51.3 351.467 49.1 Q 351.467 49 351.567 49 L 351.567 48.9 Q 353.767 46.6 354.717 43.35 Q 355.667 40.1 356.567 36.8 Q 357.467 33.5 359.467 31.1 Q 359.767 30.3 360.167 29.3 Q 360.367 28.8 360.617 28.35 Q 360.867 27.9 360.967 27.4 Q 361.267 26.5 360.717 26 Q 360.167 25.5 359.467 25.2 Q 359.267 25.1 359.267 25 Q 359.067 24.9 358.267 25 Q 357.867 25.1 357.767 25.1 Q 357.367 25 356.917 25 L 355.967 25 Q 353.267 24.8 350.567 24.8 Q 347.867 24.8 345.167 25.2 Q 344.267 25.2 343.267 25.3 Q 342.267 25.4 341.567 26 Q 340.767 26.6 340.417 27.55 Q 340.067 28.5 339.767 29.3 Q 338.067 33.7 336.467 38.1 L 334.667 42.5 L 332.867 46.9 Q 332.467 47.8 332.167 48.5 Q 332.067 48.7 331.967 49.2 Q 331.867 49.8 331.667 50.25 Q 331.467 50.7 330.667 50.6 Q 329.967 50.5 329.767 50.05 Q 329.567 49.6 329.567 49.1 Q 329.467 48.5 329.367 48.3 Q 329.367 48.2 329.267 48.1 Q 328.967 48.2 328.767 47.9 Q 328.567 47.5 328.967 47.2 Q 328.967 47.1 328.917 47 Q 328.867 46.9 328.867 46.8 Q 328.667 46.8 328.467 46.6 Q 328.267 46.3 328.567 46.1 Q 328.267 45.3 328.017 44.55 Q 327.767 43.8 327.467 43.1 L 327.467 43 L 327.367 43 Q 327.067 42.1 326.767 41.25 Q 326.467 40.4 326.167 39.6 Q 325.067 37 324.217 34.3 Q 323.367 31.6 322.267 29 Q 321.967 28.2 321.617 27.25 Q 321.267 26.3 320.567 25.8 Q 319.967 25.3 319.217 25.25 Q 318.467 25.2 317.667 25.2 L 317.067 25.2 Q 314.167 25.2 311.367 25.15 Q 308.567 25.1 305.667 25.2 L 304.017 25.2 L 302.367 25.2 Q 301.767 25.6 301.317 26.15 Q 300.867 26.7 300.467 27.2 Q 300.567 27.4 300.567 27.6 Q 300.667 28 300.917 28.4 Q 301.167 28.8 301.267 29.1 L 301.267 29.15 L 301.267 29.2 Q 302.267 31.4 303.367 33.55 Q 304.467 35.7 305.467 37.9 Q 307.067 40.1 307.867 42.7 Q 308.667 45.3 309.367 47.95 Q 310.067 50.6 311.567 52.8 Q 313.667 55.2 314.667 58.45 Q 315.667 61.7 316.667 64.9 Q 317.667 68.1 319.667 70.5 Q 319.767 70.5 319.767 70.6 L 319.867 70.7 Q 320.067 71.2 320.367 71.7 Q 320.667 72.2 320.667 72.8 L 320.667 73 L 320.667 73.2 Q 320.267 74.1 319.867 74.95 Q 319.467 75.8 319.167 76.7 L 319.067 76.8 Q 317.667 79.5 316.667 82.3 Q 315.667 85.1 314.267 87.8 Q 313.967 88.7 313.567 89.55 Q 313.167 90.4 312.767 91.2 Q 312.667 91.7 312.467 92.1 L 312.067 92.9 L 312.067 93.1 Z M 280.167 76.3 L 281.967 76 L 282.167 76 L 282.967 75.9 L 283.067 75.9 Q 285.467 75.8 287.817 75.75 Q 290.167 75.7 292.467 75.7 L 293.067 75.7 Q 293.767 75.7 294.467 75.65 Q 295.167 75.6 295.567 75.2 Q 296.067 74.7 296.117 74 Q 296.167 73.3 296.067 72.7 L 296.067 72.1 Q 296.067 69.8 296.017 67.6 Q 295.967 65.4 295.967 63.1 L 295.967 62.5 Q 295.967 61.8 295.917 61.05 Q 295.867 60.3 295.367 59.8 Q 294.867 59.3 294.117 59.15 Q 293.367 59 292.667 59 L 291.967 59 Q 290.567 58.8 289.167 58.7 Q 287.767 58.6 286.367 58.6 L 285.567 58.6 Q 284.567 58.6 283.567 58.5 Q 282.567 58.4 281.667 57.9 Q 280.267 57 279.867 55.65 Q 279.467 54.3 279.367 52.8 Q 279.167 51.5 279.167 50.15 L 279.167 47.5 L 279.167 46.35 L 279.167 45.2 L 279.167 43.8 L 279.167 43.7 Q 278.967 43.4 279.167 43.2 Q 278.967 43 279.067 42.8 L 279.067 42.7 Q 278.967 42.3 278.967 41.9 Q 278.967 41.5 279.467 41.1 Q 279.867 40.7 280.267 40.7 Q 280.667 40.7 281.067 40.9 Q 281.567 41 281.767 41 Q 282.267 41 282.717 41.05 Q 283.167 41.1 283.567 41.1 Q 284.867 41.2 286.167 41.25 Q 287.467 41.3 288.867 41.3 Q 289.667 41.4 290.517 41.4 L 292.167 41.4 Q 293.267 41.1 293.567 40.75 Q 293.867 40.4 294.067 39.3 Q 294.167 39 294.067 38.3 L 294.067 37.7 L 294.067 35.1 Q 294.067 33.8 294.167 32.5 L 294.167 30.85 L 294.167 29.2 Q 294.167 29 294.267 28.7 L 294.267 27.7 L 294.067 26.9 Q 293.967 26.5 293.667 26.2 Q 293.167 25.7 292.467 25.6 Q 291.767 25.5 291.067 25.5 L 290.467 25.5 Q 288.667 25.5 286.917 25.4 Q 285.167 25.3 283.367 25.2 L 281.667 25.2 Q 281.367 25.2 280.967 25.3 Q 280.567 25.4 280.167 25.4 Q 279.767 25.4 279.367 24.9 Q 278.967 24.5 278.967 24.1 Q 278.967 23.7 279.067 23.3 Q 279.167 22.9 279.167 22.6 Q 279.167 21.6 279.267 20.9 L 279.267 16.4 Q 279.267 14.2 279.367 12 Q 279.367 11.6 279.467 10.8 Q 279.467 10.3 279.517 9.75 Q 279.567 9.2 279.467 8.6 Q 279.267 7.5 278.917 7.15 Q 278.567 6.8 277.467 6.5 Q 277.067 6.4 276.367 6.4 L 275.767 6.4 Q 274.767 6.4 273.817 6.35 Q 272.867 6.3 271.867 6.3 Q 269.967 6.2 268.067 6.25 Q 266.167 6.3 264.267 6.4 Q 263.967 6.5 263.617 6.5 L 262.967 6.5 L 261.717 6.5 Q 261.067 6.5 260.567 6.6 Q 259.367 6.9 259.017 7.3 Q 258.667 7.7 258.367 8.9 Q 258.267 9.5 258.217 10.05 Q 258.167 10.6 258.167 11.2 L 258.167 11.85 L 258.167 12.5 Q 257.867 17.3 257.867 21.8 Q 257.867 22.7 257.917 23.65 Q 257.967 24.6 257.967 25.5 Q 257.967 25.6 257.867 25.8 Q 257.767 26 257.667 26.1 Q 257.267 26.5 256.867 26.5 Q 256.467 26.5 255.967 26.4 Q 255.467 26.3 255.167 26.4 L 253.167 26.4 Q 252.167 26.4 251.167 26.5 Q 250.967 26.5 250.567 26.4 L 249.967 26.4 Q 249.667 26.4 249.367 26.5 L 248.567 26.7 Q 248.167 26.8 247.867 27.1 Q 247.567 27.3 247.467 27.75 Q 247.367 28.2 247.367 28.5 Q 247.367 29.3 247.417 30.15 Q 247.467 31 247.467 31.8 Q 247.567 33.4 247.617 35.05 Q 247.667 36.7 247.667 38.3 L 247.667 38.8 Q 247.567 39.3 247.617 39.9 Q 247.667 40.5 248.067 40.8 Q 248.367 41.1 248.767 41.15 Q 249.167 41.2 249.567 41.2 Q 249.967 41.3 250.667 41.1 Q 251.067 41.1 251.267 41 Q 252.267 40.9 253.217 40.85 Q 254.167 40.8 255.067 40.8 Q 255.267 40.8 255.767 40.6 Q 256.267 40.5 256.667 40.5 Q 257.067 40.5 257.467 40.9 Q 257.967 41.3 257.967 41.7 Q 257.967 42.1 257.867 42.5 Q 257.767 43 257.767 43.3 L 257.767 45 Q 257.867 47.9 257.967 50.75 Q 258.067 53.6 258.267 56.5 Q 258.267 58.6 258.567 60.65 Q 258.867 62.7 259.767 64.7 Q 261.867 67.4 265.067 70.2 Q 268.267 73 271.267 74.8 Q 271.767 74.7 271.867 75.1 L 271.867 75.2 Q 272.267 75.3 272.767 75.4 L 273.367 75.3 Q 273.867 75.2 273.967 75.6 L 273.967 75.7 Q 274.367 75.8 274.667 75.9 L 275.367 75.6 Q 275.767 75.5 275.967 75.9 L 275.967 76.1 Q 276.267 76.1 276.667 76.2 L 277.467 75.9 Q 277.867 75.7 278.067 76.1 L 278.067 76.3 Q 278.367 76.4 278.667 76.4 L 279.467 76 Q 279.867 75.8 280.067 76.2 L 280.167 76.3 Z M 215.467 20.5 L 217.067 20 L 217.667 19.8 L 217.767 19.7 L 218.867 19.3 L 218.467 18.8 L 217.267 19.3 L 215.567 20.1 L 213.867 20.8 L 212.367 21.4 Q 211.967 21.6 211.767 21.2 Q 211.567 20.8 211.967 20.6 L 213.567 19.9 L 215.167 19.3 L 216.967 18.5 L 217.967 18.1 Q 217.867 17.8 217.767 17.55 Q 217.667 17.3 217.567 17.1 L 216.867 17.4 L 216.767 17.5 L 215.167 17.9 L 213.367 18.5 L 211.867 18.9 Q 211.467 19.1 211.267 18.6 Q 211.167 18.2 211.567 18.1 L 213.167 17.6 L 214.867 17.1 L 216.467 16.6 L 217.167 16.2 L 217.167 16.1 Q 217.067 15.6 216.667 15.5 L 215.267 16 L 213.667 16.7 L 212.167 17.4 Q 211.767 17.6 211.567 17.2 Q 211.367 16.8 211.767 16.6 L 213.267 15.9 L 214.867 15.2 L 214.967 15.1 L 216.467 14.7 L 216.967 14.5 Q 216.967 14 216.767 13.9 L 215.267 14.5 L 213.667 15.2 L 212.067 15.9 Q 211.667 16.1 211.467 15.6 Q 211.267 15.2 211.767 15 L 213.267 14.4 L 214.967 13.7 L 216.367 13.1 L 216.967 12.8 L 216.967 12.5 Q 216.867 12.2 216.567 12.3 L 214.967 12.8 L 213.567 13.3 L 211.867 14 Q 211.467 14.2 211.267 13.8 Q 211.067 13.4 211.467 13.2 L 213.167 12.5 L 213.167 12.4 L 213.267 12.4 L 214.667 12 L 216.167 11.4 L 216.867 11.1 Q 216.767 10.5 216.467 10.2 L 214.767 10.7 L 213.167 11.4 L 211.467 12 Q 211.067 12.2 210.867 11.8 Q 210.767 11.4 211.167 11.2 L 212.767 10.5 L 214.467 9.9 L 214.467 9.8 L 216.667 9.3 L 216.667 8.5 L 214.967 9.1 L 213.567 9.6 L 213.467 9.6 L 211.967 10.1 Q 211.567 10.2 211.367 9.8 Q 211.267 9.4 211.667 9.2 L 213.267 8.8 L 214.667 8.2 L 216.667 7.6 Q 216.567 7.2 216.567 6.8 L 215.167 7.5 L 213.667 8.2 L 212.167 8.9 Q 211.767 9 211.567 8.6 Q 211.367 8.2 211.767 8 L 213.267 7.4 L 214.767 6.7 L 216.267 6 L 216.267 5.9 L 216.567 5.9 L 216.567 5.7 L 216.567 5.2 L 215.267 5.9 L 213.667 6.5 L 212.067 7.2 Q 211.667 7.4 211.467 7 Q 211.267 6.6 211.667 6.4 L 213.267 5.7 L 213.267 5.6 L 213.367 5.6 L 214.967 5.1 L 216.367 4.3 L 216.567 4.2 L 216.567 3.7 Q 216.467 3.7 215.867 3.9 L 214.367 4.5 L 212.767 5 Q 212.367 5.2 212.167 4.7 Q 212.067 4.3 212.467 4.2 L 214.367 3.5 Q 214.367 3.3 214.567 3.3 L 215.667 3 L 216.967 2.4 Q 217.267 1.7 217.867 1.2 Q 218.767 0.3 219.867 0.15 Q 220.967 0 222.167 0 L 222.767 0 L 224.617 0 L 226.467 0 L 230.267 0 Q 232.167 0 234.067 0.1 L 235.267 0.1 Q 236.767 0.1 238.167 0.35 Q 239.567 0.6 240.567 1.8 Q 241.467 2.8 241.517 3.95 Q 241.567 5.1 241.367 6.3 L 241.367 6.7 Q 241.167 8.9 241.067 11.1 Q 240.967 13.3 241.067 15.5 L 241.067 16 Q 241.067 17.2 240.967 18.3 Q 240.867 19.4 239.967 20.4 Q 239.467 21 238.767 21.3 Q 238.067 21.6 237.267 21.7 Q 236.867 21.8 236.467 21.75 Q 236.067 21.7 235.667 21.7 Q 235.267 21.7 235.067 21.6 Q 234.167 21.6 233.317 21.5 Q 232.467 21.4 231.567 21.3 Q 231.367 21.4 231.167 21.3 L 230.867 21.3 L 229.867 21.8 Q 229.467 22 229.267 21.6 Q 229.067 21.4 229.267 21.2 L 227.467 21.8 Q 227.067 22 226.967 21.6 Q 226.967 21.5 226.867 21.5 L 225.867 21.9 Q 225.467 22.1 225.267 21.7 Q 225.067 21.3 225.467 21.1 L 226.067 20.9 Q 225.867 20.8 225.467 20.8 L 224.067 21.2 Q 223.667 21.3 223.467 21 L 222.167 21.6 Q 221.767 21.8 221.567 21.4 L 221.567 21.1 L 220.467 21.6 Q 219.967 21.8 219.867 21.4 Q 219.767 21.3 219.767 21.2 L 218.667 21.5 Q 218.267 21.7 218.167 21.3 L 218.167 21.1 L 216.667 21.6 Q 216.267 21.8 216.067 21.4 L 215.067 21.9 Q 214.967 22 214.167 21.8 Q 213.767 22 213.567 21.5 Q 213.467 21.1 213.867 21 L 215.467 20.5 Z M 219.267 73.9 L 220.567 75 Q 223.967 74.7 227.317 74.75 Q 230.667 74.8 233.967 74.8 Q 235.067 74.9 235.967 74.9 L 236.667 74.9 L 238.217 74.9 Q 238.967 74.9 239.467 74.4 Q 239.967 73.9 240.067 73.2 Q 240.167 72.5 240.067 71.8 L 240.067 71.2 L 240.067 69.8 L 240.067 68.4 L 240.067 67 L 240.067 65.6 Q 240.067 62.3 240.267 59.05 Q 240.467 55.8 240.467 52.5 Q 240.467 48.7 240.317 44.8 Q 240.167 40.9 239.967 37 Q 239.867 35.1 239.967 33.15 Q 240.067 31.2 240.167 29.3 Q 240.167 29.2 240.267 28.7 L 240.267 27.4 Q 240.267 26.7 239.767 26.2 Q 239.367 25.8 238.617 25.75 Q 237.867 25.7 237.167 25.8 Q 236.767 25.9 236.567 25.9 Q 233.567 26.2 230.517 26.35 Q 227.467 26.5 224.467 26.4 L 223.467 26.4 L 222.467 26.4 L 221.867 26.4 Q 221.167 26.3 220.417 26.35 Q 219.667 26.4 219.167 26.9 Q 218.667 27.4 218.617 28.15 Q 218.567 28.9 218.567 29.6 L 218.567 30.2 Q 218.467 32.2 218.417 34.15 Q 218.367 36.1 218.367 38.1 Q 218.267 40 218.217 41.85 Q 218.167 43.7 218.267 45.6 Q 218.267 46.2 218.317 46.8 Q 218.367 47.4 218.367 48.1 Q 218.367 49.2 218.417 50.3 Q 218.467 51.4 218.467 52.5 L 218.467 54.3 Q 218.467 55.2 218.367 56.1 Q 218.367 57.9 218.317 59.75 Q 218.267 61.6 218.467 63.4 Q 218.467 64.8 218.567 66.15 Q 218.667 67.5 218.667 68.8 L 218.667 69.45 L 218.667 70.2 Q 218.567 70.7 218.567 71.25 Q 218.567 71.8 218.667 72.3 Q 218.767 72.7 218.917 73.1 Q 219.067 73.5 219.267 73.9 Z M 177.767 56 L 178.567 55.7 L 180.167 54.9 L 180.267 54.9 L 182.067 54.3 Q 182.167 54.2 182.167 54.1 Q 182.467 53.7 182.567 52.9 L 182.467 52.9 L 181.067 53.4 L 179.367 54 L 177.867 54.6 Q 177.467 54.8 177.267 54.4 Q 177.067 54 177.467 53.8 L 178.967 53.1 L 179.067 53.1 L 180.767 52.6 L 182.667 51.9 L 182.667 51.05 L 182.667 50.2 Q 182.667 50 182.567 49.9 L 181.067 50.4 L 179.567 50.9 L 177.967 51.4 Q 177.467 51.6 177.367 51.1 Q 177.267 50.7 177.667 50.6 L 179.267 50 L 180.767 49.5 L 182.767 49 L 182.767 48.15 Q 182.767 47.7 182.667 47.3 L 180.967 48.1 L 179.367 48.9 L 177.867 49.4 Q 177.467 49.6 177.267 49.2 Q 177.167 48.8 177.567 48.6 L 178.967 48 L 180.567 47.3 L 182.267 46.5 Q 182.367 46.5 182.667 46.4 Q 182.467 45.7 182.267 45.2 Q 182.167 45 181.967 44.8 L 180.767 45.3 L 180.667 45.3 L 178.967 45.8 L 177.567 46.2 Q 177.067 46.3 176.967 45.9 Q 176.867 45.5 177.267 45.4 L 178.767 44.9 L 180.467 44.4 L 181.167 44.1 Q 179.467 43.2 177.667 44 Q 176.467 44.5 176.067 45.75 Q 175.667 47 175.667 48.1 Q 175.567 49.2 175.617 50.85 Q 175.667 52.5 176.117 53.95 Q 176.567 55.4 177.667 56 L 177.767 56 Z M 229.467 18.7 L 230.067 18.5 Q 230.467 18.4 230.667 18.8 Q 230.867 18.9 231.067 18.9 L 231.867 18.5 Q 232.367 18.4 232.467 18.8 Q 232.567 18.9 232.567 19 L 233.767 18.5 Q 234.167 18.4 234.367 18.8 L 234.367 18.9 L 235.667 18.5 Q 236.167 18.4 236.267 18.8 L 236.267 18.9 L 237.567 18.5 Q 237.967 18.4 238.167 18.8 L 238.167 18.9 Q 238.167 18.8 238.267 18.8 Q 238.667 18.3 238.717 17.6 Q 238.767 16.9 238.667 16.2 L 238.667 15.6 Q 238.567 13.3 238.667 11 Q 238.767 8.7 238.967 6.5 Q 238.967 6.3 239.067 5.9 Q 239.167 5.2 239.167 4.55 Q 239.167 3.9 238.767 3.3 Q 238.167 2.7 237.117 2.6 Q 236.067 2.5 234.967 2.5 L 233.867 2.5 Q 232.067 2.3 230.217 2.35 Q 228.367 2.4 226.467 2.4 L 224.617 2.4 L 222.767 2.4 L 222.067 2.4 Q 221.367 2.4 220.667 2.45 Q 219.967 2.5 219.467 2.9 Q 218.967 3.4 218.917 4.05 Q 218.867 4.7 218.967 5.3 L 218.967 5.8 Q 218.967 7.5 219.067 9.1 Q 219.167 10.7 219.267 12.4 Q 219.367 12.7 219.367 13.5 L 219.367 14.5 Q 219.367 15 219.467 15.5 Q 219.567 16 219.817 16.4 Q 220.066 16.8 220.266 17.199 L 220.967 18.2 Q 222.667 18.3 224.467 18.35 Q 226.267 18.4 228.167 18.5 Q 228.467 18.4 228.667 18.6 Q 229.067 18.7 229.467 18.7 Z M 182.167 57.6 L 179.467 58.5 L 179.267 58.6 L 179.067 58.6 Q 178.467 58.5 177.867 58.45 Q 177.267 58.4 176.767 58.2 L 176.667 58.2 Q 174.967 57.3 174.217 55.55 Q 173.467 53.8 173.317 51.75 Q 173.167 49.7 173.267 48 Q 173.367 46.7 173.717 45.35 Q 174.067 44 174.967 43.1 Q 174.967 43 174.867 43 Q 174.667 42.6 175.067 42.4 L 175.967 42 L 175.967 41.9 L 176.067 41.9 L 177.067 41.6 L 177.567 41.5 Q 177.767 41.5 178.067 41.4 L 178.867 41 Q 179.267 40.8 179.467 41.2 Q 179.567 41.2 179.567 41.3 Q 179.967 41.3 180.417 41.35 Q 180.867 41.4 181.567 41.4 Q 181.967 41.3 182.067 41.7 Q 182.167 41.8 182.167 41.9 Q 183.567 42.7 184.367 44 Q 184.967 45.1 185.067 46.5 Q 185.167 47.9 185.067 49.2 L 185.067 49.6 L 185.067 50.2 L 185.067 51.3 Q 185.067 51.9 184.967 52.4 Q 184.867 53.1 184.767 53.85 Q 184.667 54.6 184.367 55.3 Q 183.967 55.9 183.467 56.35 Q 182.967 56.8 182.467 57.3 Q 182.467 57.4 182.267 57.5 L 182.167 57.6 Z M 177.667 80.3 L 179.167 79.9 L 180.567 79.4 L 182.067 78.8 L 182.067 78.5 Q 182.167 78.1 182.267 77.6 L 180.867 78.1 L 179.467 78.8 L 177.967 79.3 Q 177.567 79.5 177.367 79.1 Q 177.267 78.7 177.667 78.5 L 179.067 77.9 L 180.467 77.3 L 180.567 77.3 L 182.367 76.6 L 182.367 76 L 181.067 76.6 L 179.367 77.2 L 177.867 77.8 Q 177.467 78 177.267 77.5 Q 177.167 77.1 177.567 76.9 L 178.967 76.4 L 180.767 75.7 L 182.167 75.1 L 182.467 75 L 182.467 74.4 L 181.167 74.8 L 179.567 75.6 L 177.867 76.2 Q 177.467 76.4 177.267 76 Q 175.867 76.6 173.467 76.6 Q 173.667 76.8 173.767 76.8 Q 174.667 77.8 175.667 78.6 Q 176.667 79.4 177.667 80.3 Z M 333.767 38.3 L 332.367 38.9 L 330.667 39.5 L 329.167 40.1 L 328.867 40.1 Q 329.067 40.4 329.167 40.8 L 329.767 40.6 L 331.267 40.1 L 332.667 39.3 L 332.767 39.3 L 333.567 39 Q 333.667 38.7 333.767 38.3 Z M 152.667 30.9 L 154.267 30.2 L 154.467 30.2 Q 154.667 29.9 154.167 29.9 L 152.767 30.5 L 151.167 31.3 L 149.867 31.8 L 151.067 31.4 L 152.667 30.9 Z M 115.967 57.2 L 114.567 57.8 L 112.367 58.6 Q 112.867 58.7 113.467 58.7 L 114.067 58.7 L 114.167 58.7 L 114.167 58.6 L 115.267 58.2 L 115.867 57.8 Q 116.267 57.4 115.967 57.2 Z M 333.067 40.1 L 331.667 40.9 L 331.567 40.9 L 330.067 41.5 L 329.467 41.6 Q 329.467 41.7 329.567 41.8 L 330.667 41.4 L 332.367 40.9 L 332.867 40.7 Q 332.967 40.3 333.067 40.1 Z M 330.967 42.3 L 329.867 42.6 Q 329.967 42.8 330.017 43.05 Q 330.067 43.3 330.167 43.5 L 330.767 43.4 L 331.967 42.9 Q 332.167 42.3 332.367 41.8 L 330.967 42.3 Z M 180.867 80.3 L 178.967 80.9 L 179.567 80.9 Q 180.367 81 180.867 80.7 Q 181.367 80.5 181.667 79.9 L 180.967 80.3 L 180.867 80.3 Z M 163.467 75.4 L 161.767 76.1 Q 161.667 76.1 161.367 76.2 L 162.067 76.2 L 163.367 75.6 L 163.467 75.6 L 163.967 75.4 Q 163.767 75.3 163.467 75.4 Z M 46.767 27.5 L 45.467 28 L 44.767 28.3 Q 45.467 28.2 46.067 28.2 Q 46.267 28.2 46.767 28.3 L 46.767 27.8 L 46.767 27.5 Z M 115.767 77 L 116.767 76.6 L 117.767 76.1 Q 117.667 75.9 117.667 75.7 Q 116.867 76.4 115.767 77 Z M 165.967 76 L 164.967 76.3 L 166.167 76.3 Q 166.267 76.3 166.767 76 Q 166.467 75.9 165.967 76 Z M 266.767 76.4 L 268.467 75.9 Q 268.367 75.8 268.167 75.7 L 266.767 76.4 Z M 331.067 44.2 L 330.467 44.4 Q 330.567 44.5 330.567 44.6 Q 330.567 44.7 330.667 44.8 L 331.267 44.5 Q 331.367 44.2 331.067 44.2 Z M 100.467 79.5 L 101.367 79.2 L 101.267 79.2 L 101.267 79.1 L 100.467 79.5 Z M 246.667 43.6 L 247.467 43.2 L 246.667 43.6 Z M 114.367 31.8 Q 114.267 31.8 114.367 31.8 M 182.267 46.5 Q 182.367 46.5 182.267 46.5 M 180.567 77.3 Q 180.467 77.3 180.567 77.3 M 275.067 79 Q 275.167 79 275.067 79" vector-effect="non-scaling-stroke"/></g></svg>